<svg width="168" height="59" viewBox="0 0 168 59" fill="none" xmlns="http://www.w3.org/2000/svg">
<path d="M167.067 52.1958C167.067 55.34 164.928 57.8869 162.283 57.8869H5.72362C3.07955 57.8869 0.93335 55.34 0.93335 52.1958V6.81174C0.93335 3.66904 3.07955 1.11328 5.72362 1.11328H162.281C164.928 1.11328 167.065 3.66904 167.065 6.81174L167.067 52.1958Z" fill="black"/>
<path d="M161.778 1.18185C164.659 1.18185 167.003 3.96038 167.003 7.375V51.625C167.003 55.0396 164.659 57.8182 161.778 57.8182H6.22222C3.34133 57.8182 0.997111 55.0396 0.997111 51.625V7.375C0.997111 3.96038 3.34133 1.18185 6.22222 1.18185H161.778ZM161.778 3.8147e-06H6.22222C2.80156 3.8147e-06 0 3.3206 0 7.375V51.625C0 55.6794 2.80156 59 6.22222 59H161.778C165.198 59 168 55.6794 168 51.625V7.375C168 3.3206 165.198 3.8147e-06 161.778 3.8147e-06Z" fill="#A6A6A6"/>
<path d="M37.4923 29.1812C37.4562 24.4273 40.7764 22.1145 40.9282 22.0068C39.0478 18.7574 36.1333 18.3134 35.1092 18.278C32.6613 17.9727 30.2869 20.0141 29.04 20.0141C27.7682 20.0141 25.848 18.3075 23.7785 18.3577C21.1154 18.4064 18.624 20.2339 17.2576 23.0718C14.4377 28.8582 16.5408 37.3616 19.2425 42.0388C20.594 44.3295 22.1732 46.8871 24.2402 46.7972C26.2624 46.6983 27.0178 45.2691 29.4581 45.2691C31.8761 45.2691 32.5854 46.7972 34.6935 46.7396C36.8638 46.6983 38.2302 44.4386 39.5344 42.1273C41.0962 39.5018 41.7234 36.9161 41.7483 36.7834C41.6972 36.7627 37.5333 34.8792 37.4923 29.1812Z" fill="white"/>
<path d="M33.51 15.2012C34.5977 13.589 35.3419 11.3957 35.1353 9.16992C33.5611 9.25252 31.5924 10.4605 30.4587 12.0373C29.4556 13.4268 28.5596 15.7042 28.7911 17.8459C30.5595 18.0022 32.3751 16.7883 33.51 15.2012Z" fill="white"/>
<path d="M61.0402 14.7632C61.0402 16.4993 60.6009 17.8061 59.7236 18.6838C58.9109 19.4935 57.7561 19.8992 56.2603 19.8992C55.5186 19.8992 54.8839 19.8608 54.3525 19.7841V10.2984C55.0457 10.1656 55.7924 10.0978 56.5988 10.0978C58.0237 10.0978 59.0976 10.4651 59.8219 11.1996C60.6333 12.03 61.0402 13.2174 61.0402 14.7632ZM59.6651 14.806C59.6651 13.6806 59.4137 12.8177 58.9109 12.2159C58.4082 11.6156 57.674 11.3147 56.707 11.3147C56.2964 11.3147 55.9467 11.3471 55.6567 11.415V18.6262C55.8173 18.6557 56.1109 18.669 56.5378 18.669C57.5358 18.669 58.3061 18.3401 58.8487 17.6822C59.3913 17.0244 59.6651 16.0656 59.6651 14.806Z" fill="white"/>
<path d="M68.3315 16.2796C68.3315 17.349 68.0739 18.2252 67.5587 18.9125C67.0187 19.619 66.3031 19.9716 65.4096 19.9716C64.5484 19.9716 63.8627 19.6338 63.3513 18.9553C62.8411 18.2783 62.5859 17.4242 62.5859 16.3947C62.5859 15.3179 62.8485 14.4344 63.3762 13.7485C63.9038 13.0627 64.6131 12.719 65.5067 12.719C66.3678 12.719 67.0597 13.0568 67.5836 13.7338C68.0814 14.3916 68.3315 15.2412 68.3315 16.2796ZM66.9788 16.3298C66.9788 15.6882 66.8619 15.138 66.6291 14.6793C66.3554 14.1247 65.9659 13.8474 65.4594 13.8474C64.9355 13.8474 64.5372 14.1247 64.2634 14.6793C64.0295 15.138 63.9138 15.697 63.9138 16.3578C63.9138 16.9994 64.0307 17.5496 64.2634 18.0083C64.5459 18.5629 64.9392 18.8402 65.4469 18.8402C65.9447 18.8402 66.3354 18.5585 66.6167 17.9936C66.8581 17.526 66.9788 16.9714 66.9788 16.3298Z" fill="white"/>
<path d="M78.1079 12.8605L76.2724 19.8136H75.0777L74.3174 16.7943C74.1245 16.0406 73.9677 15.2913 73.8457 14.5479H73.8221C73.7088 15.3119 73.552 16.0597 73.3504 16.7943L72.5428 19.8136H71.3344L69.6084 12.8605H70.9487L71.6119 16.1659C71.7725 16.9477 71.9044 17.6926 72.0102 18.3976H72.0338C72.1309 17.8165 72.2914 17.076 72.5179 16.1807L73.3504 12.8619H74.4132L75.2109 16.1099C75.4038 16.902 75.5606 17.6645 75.6813 18.3991H75.7174C75.8057 17.6837 75.9389 16.9211 76.1156 16.1099L76.8274 12.8619H78.1079V12.8605Z" fill="white"/>
<path d="M84.8691 19.8137H83.5649V15.8312C83.5649 14.604 83.1717 13.9904 82.3827 13.9904C81.9957 13.9904 81.6833 14.1585 81.4406 14.4963C81.2005 14.8341 81.0785 15.2323 81.0785 15.6881V19.8122H79.7743V14.8473C79.7743 14.2367 79.7582 13.5744 79.7271 12.8576H80.8732L80.9342 13.9446H80.9702C81.1221 13.6069 81.3486 13.3281 81.646 13.1054C81.9994 12.8458 82.3951 12.7145 82.8282 12.7145C83.3757 12.7145 83.8312 12.9239 84.1933 13.3443C84.6438 13.8591 84.8691 14.6276 84.8691 15.6483V19.8137Z" fill="white"/>
<path d="M88.465 19.8136H87.1621V9.67004H88.465V19.8136Z" fill="white"/>
<path d="M96.1436 16.2796C96.1436 17.349 95.886 18.2252 95.3708 18.9125C94.8307 19.619 94.1139 19.9716 93.2216 19.9716C92.3592 19.9716 91.6735 19.6338 91.1633 18.9553C90.6531 18.2783 90.3979 17.4242 90.3979 16.3947C90.3979 15.3179 90.6605 14.4344 91.1882 13.7485C91.7158 13.0627 92.4252 12.719 93.3174 12.719C94.1798 12.719 94.8705 13.0568 95.3956 13.7338C95.8934 14.3916 96.1436 15.2412 96.1436 16.2796ZM94.7896 16.3298C94.7896 15.6882 94.6726 15.138 94.4399 14.6793C94.1674 14.1247 93.7766 13.8474 93.2714 13.8474C92.7462 13.8474 92.348 14.1247 92.0755 14.6793C91.8415 15.138 91.7258 15.697 91.7258 16.3578C91.7258 16.9994 91.8427 17.5496 92.0755 18.0083C92.3579 18.5629 92.7512 18.8402 93.2589 18.8402C93.7567 18.8402 94.1462 18.5585 94.4275 17.9936C94.6701 17.526 94.7896 16.9714 94.7896 16.3298Z" fill="white"/>
<path d="M102.455 19.8137H101.284L101.187 19.0128H101.151C100.75 19.6515 100.179 19.9716 99.4374 19.9716C98.8836 19.9716 98.4356 19.7606 98.0984 19.3417C97.7922 18.9612 97.6392 18.4877 97.6392 17.9257C97.6392 17.0761 97.9378 16.4286 98.5389 15.9802C99.1387 15.5318 99.9825 15.312 101.069 15.3224V15.1926C101.069 14.2766 100.663 13.8193 99.8505 13.8193C99.2719 13.8193 98.7617 13.9919 98.3211 14.3341L98.056 13.3193C98.6011 12.9196 99.2744 12.719 100.068 12.719C101.601 12.719 102.371 13.6777 102.371 15.5952V18.1558C102.371 18.8506 102.399 19.4037 102.455 19.8137ZM101.101 17.4242V16.3519C99.6626 16.3224 98.9433 16.79 98.9433 17.7532C98.9433 18.116 99.0255 18.3874 99.1935 18.5688C99.3615 18.7503 99.5755 18.8402 99.8306 18.8402C100.117 18.8402 100.384 18.7326 100.628 18.5187C100.873 18.3033 101.024 18.0305 101.08 17.6956C101.094 17.6204 101.101 17.529 101.101 17.4242Z" fill="white"/>
<path d="M109.866 19.8136H108.709L108.648 18.697H108.612C108.242 19.5466 107.612 19.9714 106.728 19.9714C106.021 19.9714 105.432 19.6425 104.965 18.9847C104.499 18.3268 104.266 17.4728 104.266 16.4241C104.266 15.2986 104.519 14.3871 105.026 13.6909C105.518 13.0419 106.12 12.7174 106.837 12.7174C107.625 12.7174 108.176 13.0316 108.49 13.6614H108.515V9.67004H109.82V17.9404C109.82 18.6174 109.835 19.2413 109.866 19.8136ZM108.515 16.8813V15.722C108.515 15.5214 108.502 15.3591 108.479 15.2352C108.405 14.8635 108.247 14.5508 108.007 14.2986C107.764 14.0464 107.472 13.9195 107.135 13.9195C106.648 13.9195 106.267 14.1481 105.987 14.6069C105.71 15.0656 105.569 15.6512 105.569 16.3665C105.569 17.0539 105.702 17.6114 105.97 18.0407C106.252 18.4979 106.633 18.7265 107.11 18.7265C107.538 18.7265 107.88 18.5363 108.14 18.1542C108.391 17.8017 108.515 17.3769 108.515 16.8813Z" fill="white"/>
<path d="M121.02 16.2796C121.02 17.349 120.762 18.2252 120.247 18.9125C119.707 19.619 118.993 19.9716 118.098 19.9716C117.238 19.9716 116.552 19.6338 116.04 18.9553C115.53 18.2783 115.274 17.4242 115.274 16.3947C115.274 15.3179 115.537 14.4344 116.065 13.7485C116.592 13.0627 117.302 12.719 118.196 12.719C119.056 12.719 119.749 13.0568 120.272 13.7338C120.77 14.3916 121.02 15.2412 121.02 16.2796ZM119.669 16.3298C119.669 15.6882 119.552 15.138 119.319 14.6793C119.044 14.1247 118.656 13.8474 118.148 13.8474C117.625 13.8474 117.227 14.1247 116.952 14.6793C116.718 15.138 116.602 15.697 116.602 16.3578C116.602 16.9994 116.719 17.5496 116.952 18.0083C117.234 18.5629 117.628 18.8402 118.135 18.8402C118.633 18.8402 119.025 18.5585 119.306 17.9936C119.547 17.526 119.669 16.9714 119.669 16.3298Z" fill="white"/>
<path d="M128.032 19.8137H126.729V15.8312C126.729 14.604 126.336 13.9904 125.546 13.9904C125.159 13.9904 124.847 14.1585 124.605 14.4963C124.364 14.8341 124.243 15.2323 124.243 15.6881V19.8122H122.938V14.8473C122.938 14.2367 122.923 13.5744 122.892 12.8576H124.036L124.097 13.9446H124.134C124.287 13.6069 124.513 13.3281 124.809 13.1054C125.164 12.8458 125.558 12.7145 125.993 12.7145C126.539 12.7145 126.995 12.9239 127.357 13.3443C127.808 13.8591 128.032 14.6276 128.032 15.6483V19.8137Z" fill="white"/>
<path d="M136.81 14.0184H135.374V17.3962C135.374 18.2546 135.629 18.6839 136.134 18.6839C136.368 18.6839 136.562 18.6603 136.715 18.6116L136.749 19.7842C136.491 19.8993 136.153 19.9568 135.736 19.9568C135.22 19.9568 134.82 19.7709 134.53 19.3992C134.239 19.0275 134.094 18.4021 134.094 17.5245V14.0184H133.237V12.8606H134.094V11.5862L135.372 11.1289V12.8591H136.808V14.0184H136.81Z" fill="white"/>
<path d="M143.714 19.8136H142.408V15.8606C142.408 14.6142 142.015 13.9903 141.228 13.9903C140.623 13.9903 140.21 14.3517 139.983 15.0744C139.944 15.2264 139.922 15.4122 139.922 15.6305V19.8121H138.619V9.67004H139.922V13.8605H139.947C140.358 13.0979 140.946 12.7174 141.709 12.7174C142.249 12.7174 142.696 12.9268 143.051 13.3472C143.492 13.8708 143.714 14.6496 143.714 15.6792V19.8136Z" fill="white"/>
<path d="M150.836 16.0081C150.836 16.2854 150.818 16.5184 150.787 16.7087H146.876C146.893 17.3961 147.08 17.9197 147.442 18.2825C147.773 18.607 148.2 18.7693 148.723 18.7693C149.301 18.7693 149.829 18.6601 150.304 18.4404L150.508 19.5142C149.952 19.8003 149.297 19.9434 148.54 19.9434C147.631 19.9434 146.916 19.6263 146.398 18.992C145.878 18.3578 145.62 17.5067 145.62 16.4388C145.62 15.3901 145.86 14.5169 146.344 13.8207C146.85 13.0773 147.533 12.7056 148.395 12.7056C149.239 12.7056 149.88 13.0773 150.313 13.8207C150.663 14.4107 150.836 15.1408 150.836 16.0081ZM149.591 15.6084C149.601 15.1496 149.515 14.7543 149.339 14.421C149.112 13.9918 148.767 13.7764 148.301 13.7764C147.875 13.7764 147.528 13.9859 147.263 14.4062C147.046 14.7411 146.918 15.1408 146.876 15.6084H149.591Z" fill="white"/>
<path d="M66.7582 46.4684H63.9321L62.384 40.7026H57.003L55.5283 46.4684H52.7769L58.1081 26.8391H61.4009L66.7582 46.4684ZM61.9173 38.2836L60.5173 33.158C60.3692 32.6344 60.0917 31.4013 59.6823 29.4602H59.6325C59.4695 30.295 59.2069 31.5281 58.846 33.158L57.4709 38.2836H61.9173Z" fill="white"/>
<path d="M80.4682 39.2174C80.4682 41.6246 79.9194 43.5273 78.8218 44.9242C77.8387 46.1676 76.6179 46.7886 75.1606 46.7886C73.5876 46.7886 72.4577 46.1189 71.7695 44.7796H71.7197V52.2357H69.0666V36.9739C69.0666 35.4606 69.033 33.9074 68.9683 32.3144H71.3016L71.4497 34.5579H71.4995C72.3843 32.8675 73.727 32.0238 75.529 32.0238C76.9377 32.0238 78.1137 32.6831 79.0545 34.0033C79.9978 35.3249 80.4682 37.0624 80.4682 39.2174ZM77.7652 39.3324C77.7652 37.9548 77.5039 36.819 76.9787 35.9252C76.4051 34.993 75.6347 34.5269 74.6691 34.5269C74.0145 34.5269 73.4196 34.7865 72.8883 35.2983C72.3556 35.8146 72.0072 36.4886 71.8442 37.3235C71.762 37.7129 71.721 38.0315 71.721 38.2822V40.6422C71.721 41.6718 71.9873 42.5406 72.5199 43.25C73.0525 43.9595 73.7444 44.3135 74.5956 44.3135C75.5949 44.3135 76.3727 43.8563 76.929 42.9447C77.4865 42.0317 77.7652 40.8281 77.7652 39.3324Z" fill="white"/>
<path d="M94.2033 39.2174C94.2033 41.6246 93.6545 43.5273 92.5556 44.9242C91.5738 46.1676 90.3529 46.7886 88.8957 46.7886C87.3227 46.7886 86.1928 46.1189 85.5058 44.7796H85.4561V52.2357H82.8029V36.9739C82.8029 35.4606 82.7693 33.9074 82.7046 32.3144H85.0379L85.186 34.5579H85.2358C86.1193 32.8675 87.4621 32.0238 89.2653 32.0238C90.6728 32.0238 91.8488 32.6831 92.7921 34.0033C93.7316 35.3249 94.2033 37.0624 94.2033 39.2174ZM91.5003 39.3324C91.5003 37.9548 91.2377 36.819 90.7126 35.9252C90.1389 34.993 89.3711 34.5269 88.4042 34.5269C87.7483 34.5269 87.1547 34.7865 86.6221 35.2983C86.0895 35.8146 85.7423 36.4886 85.5793 37.3235C85.4984 37.7129 85.4561 38.0315 85.4561 38.2822V40.6422C85.4561 41.6718 85.7224 42.5406 86.2525 43.25C86.7851 43.958 87.477 44.3135 88.3307 44.3135C89.33 44.3135 90.1078 43.8563 90.6641 42.9447C91.2216 42.0317 91.5003 40.8281 91.5003 39.3324Z" fill="white"/>
<path d="M109.56 40.9637C109.56 42.6334 109.071 43.9919 108.089 45.0406C107.01 46.1867 105.508 46.759 103.578 46.759C101.796 46.759 100.367 46.3519 99.2856 45.5362L99.9004 42.9152C101.065 43.75 102.343 44.1689 103.736 44.1689C104.735 44.1689 105.513 43.9005 106.072 43.3665C106.628 42.8326 106.905 42.1157 106.905 41.2219C106.905 40.4254 106.676 39.7542 106.217 39.21C105.76 38.6657 104.998 38.1598 103.932 37.6922C101.033 36.4104 99.5843 34.5327 99.5843 32.0636C99.5843 30.4499 100.092 29.1269 101.109 28.0973C102.122 27.0663 103.473 26.5515 105.163 26.5515C106.67 26.5515 107.922 26.8627 108.921 27.4837L108.258 30.0473C107.325 29.4455 106.269 29.1446 105.088 29.1446C104.155 29.1446 103.426 29.4174 102.903 29.9602C102.461 30.4455 102.24 31.037 102.24 31.7376C102.24 32.5135 102.493 33.1551 103 33.6595C103.442 34.1256 104.245 34.6301 105.41 35.1744C106.834 35.8543 107.881 36.6494 108.554 37.5609C109.225 38.4695 109.56 39.6067 109.56 40.9637Z" fill="white"/>
<path d="M118.332 34.6743H115.407V41.5463C115.407 43.2942 115.922 44.1674 116.955 44.1674C117.429 44.1674 117.823 44.1187 118.134 44.0214L118.207 46.4094C117.684 46.641 116.996 46.7575 116.144 46.7575C115.096 46.7575 114.277 46.3785 113.686 45.6218C113.097 44.8636 112.801 43.5922 112.801 41.806V34.6714H111.059V32.3114H112.801V29.7198L115.407 28.7876V32.3114H118.332V34.6743Z" fill="white"/>
<path d="M131.527 39.2748C131.527 41.4504 131.001 43.2366 129.954 44.6334C128.855 46.0716 127.396 46.7884 125.578 46.7884C123.826 46.7884 122.431 46.0996 121.391 44.7219C120.35 43.3443 119.83 41.6053 119.83 39.5093C119.83 37.316 120.365 35.5194 121.439 34.1226C122.511 32.7243 123.957 32.0251 125.775 32.0251C127.527 32.0251 128.937 32.714 130.001 34.0931C131.019 35.4309 131.527 37.1581 131.527 39.2748ZM128.774 39.3765C128.774 38.0712 128.539 36.9516 128.062 36.018C127.506 34.8881 126.711 34.3247 125.68 34.3247C124.614 34.3247 123.804 34.8896 123.247 36.018C122.771 36.9531 122.536 38.0903 122.536 39.4355C122.536 40.7409 122.771 41.8604 123.247 42.7926C123.821 43.9225 124.622 44.4859 125.657 44.4859C126.67 44.4859 127.465 43.9107 128.038 42.7631C128.528 41.8118 128.774 40.6804 128.774 39.3765Z" fill="white"/>
<path d="M140.151 35.08C139.888 35.0225 139.608 34.993 139.314 34.993C138.381 34.993 137.659 35.4104 137.152 36.2467C136.71 36.9842 136.488 37.9164 136.488 39.0419V46.4685H133.836L133.861 36.7718C133.861 35.1405 133.828 33.6552 133.762 32.3159H136.073L136.17 35.024H136.243C136.523 34.0932 136.965 33.3439 137.57 32.782C138.161 32.276 138.799 32.0238 139.487 32.0238C139.733 32.0238 139.954 32.0445 140.151 32.0813V35.08Z" fill="white"/>
<path d="M152.016 38.7217C152.016 39.2852 151.985 39.7601 151.919 40.148H143.96C143.991 41.5463 144.376 42.6157 145.115 43.3532C145.785 44.0125 146.653 44.3429 147.718 44.3429C148.897 44.3429 149.972 44.1202 150.939 43.6733L151.354 45.8563C150.224 46.4404 148.89 46.731 147.351 46.731C145.499 46.731 144.046 46.0849 142.988 44.7943C141.933 43.5037 141.404 41.7705 141.404 39.5964C141.404 37.4621 141.895 35.6847 142.88 34.2672C143.91 32.7539 145.303 31.9972 147.055 31.9972C148.776 31.9972 150.079 32.7539 150.964 34.2672C151.664 35.4693 152.016 36.9561 152.016 38.7217ZM149.486 37.906C149.504 36.9738 149.331 36.1685 148.971 35.4885C148.512 34.6138 147.806 34.1772 146.857 34.1772C145.99 34.1772 145.284 34.6035 144.745 35.459C144.303 36.139 144.041 36.9547 143.96 37.9046H149.486V37.906Z" fill="white"/>
</svg>
