<svg width="20" height="20" viewBox="0 0 20 20" fill="none" xmlns="http://www.w3.org/2000/svg">
<mask id="mask0_7327_778" style="mask-type:alpha" maskUnits="userSpaceOnUse" x="0" y="0" width="20" height="20">
<rect width="20" height="20" fill="#D9D9D9"/>
</mask>
<g mask="url(#mask0_7327_778)">
<path d="M2.08325 9.99992C2.08325 8.90589 2.29131 7.87735 2.70742 6.91429C3.12353 5.9511 3.6879 5.11318 4.40054 4.40054C5.11318 3.6879 5.9511 3.12353 6.91429 2.70742C7.87735 2.29131 8.90589 2.08325 9.99992 2.08325C11.7959 2.08325 13.3782 2.61075 14.7468 3.66575C16.1153 4.72089 17.0399 6.06464 17.5208 7.697C17.5859 7.88506 17.5827 8.06909 17.5112 8.24909C17.4395 8.42923 17.3123 8.54492 17.1297 8.59617C16.9555 8.63881 16.7958 8.61131 16.6505 8.51367C16.5053 8.41589 16.4043 8.27992 16.3476 8.10575C16.0785 7.13881 15.6127 6.27846 14.9503 5.52471C14.2878 4.77096 13.471 4.20179 12.4999 3.81721V4.16659C12.4999 4.62492 12.3367 5.01728 12.0103 5.34367C11.6839 5.67006 11.2916 5.83325 10.8333 5.83325H9.16658V7.49992C9.16658 7.73603 9.08672 7.93395 8.927 8.09367C8.76728 8.25339 8.56936 8.33325 8.33325 8.33325H6.66658V9.99992H7.51596C7.73068 9.99992 7.90992 10.0718 8.05367 10.2155C8.19728 10.3592 8.26908 10.5383 8.26908 10.753V12.4999H7.49992L3.49992 8.49992C3.45825 8.74992 3.42006 8.99992 3.38534 9.24992C3.35061 9.49992 3.33325 9.74992 3.33325 9.99992C3.33325 11.7264 3.90964 13.2256 5.06242 14.4974C6.2152 15.7694 7.6602 16.4839 9.39742 16.641C9.57158 16.658 9.71554 16.7264 9.82929 16.8462C9.94304 16.9658 9.99992 17.1142 9.99992 17.2916C9.99992 17.4689 9.93742 17.6174 9.81242 17.737C9.68742 17.8567 9.53783 17.908 9.36367 17.891C7.31353 17.7253 5.58756 16.8911 4.18575 15.3885C2.78409 13.8858 2.08325 12.0896 2.08325 9.99992ZM17.1122 17.157L14.7803 14.8412C14.5101 15.0133 14.2189 15.1521 13.907 15.2578C13.5951 15.3637 13.2649 15.4166 12.9166 15.4166C11.9871 15.4166 11.1992 15.0934 10.5528 14.447C9.90645 13.8006 9.58325 13.0127 9.58325 12.0833C9.58325 11.1538 9.90645 10.3659 10.5528 9.7195C11.1992 9.07311 11.9871 8.74992 12.9166 8.74992C13.846 8.74992 14.6339 9.07311 15.2803 9.7195C15.9267 10.3659 16.2499 11.1538 16.2499 12.0833C16.2499 12.4369 16.1957 12.771 16.0872 13.0858C15.9787 13.4003 15.8358 13.6928 15.6585 13.963L17.9903 16.2789C18.111 16.3942 18.1714 16.5392 18.1714 16.7139C18.1714 16.8886 18.111 17.0363 17.9903 17.157C17.8749 17.2724 17.7298 17.3301 17.5551 17.3301C17.3805 17.3301 17.2329 17.2724 17.1122 17.157ZM12.9166 14.1666C13.4999 14.1666 13.993 13.9652 14.3958 13.5624C14.7985 13.1596 14.9999 12.6666 14.9999 12.0833C14.9999 11.4999 14.7985 11.0069 14.3958 10.6041C13.993 10.2013 13.4999 9.99992 12.9166 9.99992C12.3333 9.99992 11.8402 10.2013 11.4374 10.6041C11.0346 11.0069 10.8333 11.4999 10.8333 12.0833C10.8333 12.6666 11.0346 13.1596 11.4374 13.5624C11.8402 13.9652 12.3333 14.1666 12.9166 14.1666Z" fill="#374151"/>
</g>
</svg>
