<svg width="20" height="20" viewBox="0 0 20 20" fill="none" xmlns="http://www.w3.org/2000/svg">
<mask id="mask0_7327_118" style="mask-type:alpha" maskUnits="userSpaceOnUse" x="0" y="0" width="20" height="20">
<rect width="20" height="20" fill="#D9D9D9"/>
</mask>
<g mask="url(#mask0_7327_118)">
<path d="M3.93742 16.4584C3.15214 16.4584 2.48443 16.1812 1.93429 15.6267C1.38402 15.0722 1.10034 14.3969 1.08325 13.6009C1.08325 13.4834 1.08888 13.3675 1.10013 13.2532C1.11138 13.1389 1.13089 13.022 1.15867 12.9024L2.90867 5.90237C3.09103 5.20001 3.46228 4.63098 4.02242 4.19529C4.58256 3.7596 5.22089 3.54175 5.93742 3.54175H14.0624C14.7789 3.54175 15.4173 3.7596 15.9774 4.19529C16.5376 4.63098 16.9088 5.20001 17.0912 5.90237L18.8412 12.9024C18.8689 13.022 18.8919 13.1424 18.9101 13.2636C18.9283 13.3849 18.9374 13.5042 18.9374 13.6217C18.9374 14.4177 18.6567 15.0895 18.0953 15.6372C17.5338 16.1847 16.8564 16.4584 16.063 16.4584C15.5167 16.4584 15.0122 16.315 14.5497 16.0282C14.0871 15.7413 13.7361 15.3526 13.4968 14.8622L12.9053 13.6459C12.8199 13.4723 12.6917 13.3421 12.5208 13.2553C12.3498 13.1685 12.1692 13.1251 11.9791 13.1251H8.02075C7.832 13.1251 7.65179 13.1678 7.48013 13.2532C7.30846 13.3388 7.17992 13.4697 7.0945 13.6459L6.50304 14.8622C6.26915 15.358 5.91909 15.748 5.45284 16.0322C4.98659 16.3163 4.48145 16.4584 3.93742 16.4584ZM4.002 15.2084C4.30186 15.2084 4.57679 15.1283 4.82679 14.968C5.07679 14.8077 5.26541 14.5936 5.39263 14.3255L5.97596 13.1299C6.16777 12.737 6.44915 12.4296 6.82013 12.2078C7.1911 11.986 7.59131 11.8751 8.02075 11.8751H11.9791C12.4119 11.8751 12.8128 11.9907 13.1818 12.222C13.551 12.4533 13.8386 12.7587 14.0447 13.138L14.628 14.3255C14.7553 14.5936 14.9439 14.8077 15.1939 14.968C15.4439 15.1283 15.7206 15.2084 16.0241 15.2084C16.4714 15.2084 16.8549 15.0586 17.1745 14.7588C17.4941 14.4592 17.6581 14.0883 17.6666 13.6459C17.6666 13.6384 17.6501 13.4904 17.617 13.202L15.867 6.22279C15.7591 5.80501 15.5392 5.4621 15.2074 5.19404C14.8758 4.92585 14.4941 4.79175 14.0624 4.79175H5.93742C5.50006 4.79175 5.11346 4.92585 4.77763 5.19404C4.44179 5.4621 4.22686 5.80501 4.13284 6.22279L2.38284 13.202C2.36047 13.2746 2.34395 13.4156 2.33325 13.6251C2.33325 14.0729 2.497 14.4487 2.8245 14.7526C3.15186 15.0565 3.54436 15.2084 4.002 15.2084ZM11.2499 9.0705C11.4539 9.0705 11.6278 8.99869 11.7716 8.85508C11.9152 8.71133 11.987 8.53744 11.987 8.33341C11.987 8.12939 11.9152 7.9555 11.7716 7.81175C11.6278 7.66814 11.4539 7.59633 11.2499 7.59633C11.0459 7.59633 10.872 7.66814 10.7283 7.81175C10.5846 7.9555 10.5128 8.12939 10.5128 8.33341C10.5128 8.53744 10.5846 8.71133 10.7283 8.85508C10.872 8.99869 11.0459 9.0705 11.2499 9.0705ZM12.9166 7.40383C13.1206 7.40383 13.2945 7.33203 13.4383 7.18841C13.5819 7.04466 13.6537 6.87078 13.6537 6.66675C13.6537 6.46272 13.5819 6.28883 13.4383 6.14508C13.2945 6.00147 13.1206 5.92966 12.9166 5.92966C12.7126 5.92966 12.5387 6.00147 12.3949 6.14508C12.2513 6.28883 12.1795 6.46272 12.1795 6.66675C12.1795 6.87078 12.2513 7.04466 12.3949 7.18841C12.5387 7.33203 12.7126 7.40383 12.9166 7.40383ZM12.9166 10.7372C13.1206 10.7372 13.2945 10.6654 13.4383 10.5217C13.5819 10.378 13.6537 10.2041 13.6537 10.0001C13.6537 9.79605 13.5819 9.62217 13.4383 9.47842C13.2945 9.3348 13.1206 9.263 12.9166 9.263C12.7126 9.263 12.5387 9.3348 12.3949 9.47842C12.2513 9.62217 12.1795 9.79605 12.1795 10.0001C12.1795 10.2041 12.2513 10.378 12.3949 10.5217C12.5387 10.6654 12.7126 10.7372 12.9166 10.7372ZM14.5833 9.0705C14.7873 9.0705 14.9612 8.99869 15.1049 8.85508C15.2485 8.71133 15.3203 8.53744 15.3203 8.33341C15.3203 8.12939 15.2485 7.9555 15.1049 7.81175C14.9612 7.66814 14.7873 7.59633 14.5833 7.59633C14.3792 7.59633 14.2053 7.66814 14.0616 7.81175C13.918 7.9555 13.8462 8.12939 13.8462 8.33341C13.8462 8.53744 13.918 8.71133 14.0616 8.85508C14.2053 8.99869 14.3792 9.0705 14.5833 9.0705ZM7.08284 10.2886C7.22631 10.2886 7.34506 10.2417 7.43908 10.1478C7.53311 10.0539 7.58013 9.93522 7.58013 9.79175V8.83029H8.54159C8.68506 8.83029 8.80374 8.78335 8.89763 8.68946C8.99152 8.59571 9.03846 8.47717 9.03846 8.33383C9.03846 8.19036 8.99152 8.07161 8.89763 7.97758C8.80374 7.88355 8.68506 7.83654 8.54159 7.83654H7.58013V6.87508C7.58013 6.73161 7.53318 6.61293 7.43929 6.51904C7.34554 6.42515 7.227 6.37821 7.08367 6.37821C6.9402 6.37821 6.82145 6.42515 6.72742 6.51904C6.63339 6.61293 6.58638 6.73161 6.58638 6.87508V7.83654H5.62492C5.48145 7.83654 5.36277 7.88348 5.26888 7.97737C5.17499 8.07112 5.12804 8.18966 5.12804 8.333C5.12804 8.47647 5.17499 8.59522 5.26888 8.68925C5.36277 8.78328 5.48145 8.83029 5.62492 8.83029H6.58638V9.79175C6.58638 9.93522 6.63332 10.0539 6.72721 10.1478C6.82096 10.2417 6.9395 10.2886 7.08284 10.2886Z" fill="#374151"/>
</g>
</svg>
