<svg width="20" height="20" viewBox="0 0 20 20" fill="none" xmlns="http://www.w3.org/2000/svg">
<mask id="mask0_7327_102" style="mask-type:alpha" maskUnits="userSpaceOnUse" x="0" y="0" width="20" height="20">
<rect width="20" height="20" fill="#D9D9D9"/>
</mask>
<g mask="url(#mask0_7327_102)">
<path d="M18.75 4.42321V15.577C18.75 15.9913 18.6025 16.3459 18.3075 16.6409C18.0125 16.9359 17.6578 17.0834 17.2435 17.0834H14.375C14.1979 17.0834 14.0494 17.0235 13.9296 16.9036C13.8099 16.7838 13.75 16.6353 13.75 16.4582C13.75 16.281 13.8099 16.1326 13.9296 16.013C14.0494 15.8933 14.1979 15.8334 14.375 15.8334H17.2435C17.3184 15.8334 17.3799 15.8094 17.4279 15.7613C17.476 15.7133 17.5 15.6518 17.5 15.577V4.42321C17.5 4.34835 17.476 4.28689 17.4279 4.23883C17.3799 4.19078 17.3184 4.16675 17.2435 4.16675H10C9.92514 4.16675 9.86368 4.19078 9.81563 4.23883C9.76757 4.28689 9.74354 4.34835 9.74354 4.42321V5.12029C9.74354 5.29737 9.68361 5.44585 9.56375 5.56571C9.44389 5.68543 9.29542 5.74529 9.11833 5.74529C8.94111 5.74529 8.79271 5.68543 8.67312 5.56571C8.5534 5.44585 8.49354 5.29737 8.49354 5.12029V4.39758C8.49354 3.99258 8.6391 3.64453 8.93021 3.35342C9.22132 3.0623 9.56937 2.91675 9.97437 2.91675H17.2435C17.6578 2.91675 18.0125 3.06425 18.3075 3.35925C18.6025 3.65425 18.75 4.0089 18.75 4.42321ZM1.25 10.149C1.25 9.90335 1.30583 9.67182 1.4175 9.45446C1.52917 9.23696 1.68542 9.05987 1.88625 8.92321L5.79646 6.13633C5.93507 6.03661 6.07681 5.96494 6.22167 5.92133C6.36653 5.87772 6.51458 5.85592 6.66583 5.85592C6.81708 5.85592 6.96535 5.87772 7.11062 5.92133C7.25576 5.96494 7.39785 6.03661 7.53687 6.13633L11.4471 8.92321C11.6479 9.05987 11.8042 9.23696 11.9158 9.45446C12.0275 9.67182 12.0833 9.90335 12.0833 10.149V15.577C12.0833 15.9913 11.9358 16.3459 11.6408 16.6409C11.3458 16.9359 10.9912 17.0834 10.5769 17.0834H9.11854C8.70438 17.0834 8.34979 16.9359 8.05479 16.6409C7.75979 16.3459 7.61229 15.9913 7.61229 15.577V13.1251H5.72104V15.577C5.72104 15.9913 5.57354 16.3459 5.27854 16.6409C4.98354 16.9359 4.62896 17.0834 4.21479 17.0834H2.75646C2.34215 17.0834 1.9875 16.9359 1.6925 16.6409C1.3975 16.3459 1.25 15.9913 1.25 15.577V10.149ZM2.5 10.1363V15.577C2.5 15.6518 2.52403 15.7133 2.57208 15.7613C2.62014 15.8094 2.6816 15.8334 2.75646 15.8334H4.21479C4.28951 15.8334 4.3509 15.8094 4.39896 15.7613C4.44715 15.7133 4.47125 15.6518 4.47125 15.577V13.1411C4.47125 12.7896 4.59438 12.4907 4.84063 12.2445C5.08688 11.9982 5.38569 11.8751 5.73708 11.8751H7.59625C7.94764 11.8751 8.24646 11.9982 8.49271 12.2445C8.73896 12.4907 8.86208 12.7896 8.86208 13.1411V15.577C8.86208 15.6518 8.88618 15.7133 8.93438 15.7613C8.98243 15.8094 9.04382 15.8334 9.11854 15.8334H10.5769C10.6517 15.8334 10.7132 15.8094 10.7612 15.7613C10.8093 15.7133 10.8333 15.6518 10.8333 15.577V10.1363C10.8333 10.0936 10.824 10.0535 10.8052 10.0161C10.7866 9.97876 10.7585 9.94668 10.721 9.91987L6.81083 7.16196C6.76819 7.12987 6.72014 7.11383 6.66667 7.11383C6.61319 7.11383 6.56514 7.12987 6.5225 7.16196L2.61229 9.91987C2.57479 9.94668 2.54674 9.97876 2.52812 10.0161C2.50937 10.0535 2.5 10.0936 2.5 10.1363ZM14.6394 7.40383H15.3606C15.461 7.40383 15.5489 7.36619 15.6242 7.29092C15.6994 7.21564 15.7371 7.12779 15.7371 7.02737V6.30612C15.7371 6.20571 15.6994 6.11786 15.6242 6.04258C15.5489 5.9673 15.461 5.92967 15.3606 5.92967H14.6394C14.539 5.92967 14.4511 5.9673 14.3758 6.04258C14.3006 6.11786 14.2629 6.20571 14.2629 6.30612V7.02737C14.2629 7.12779 14.3006 7.21564 14.3758 7.29092C14.4511 7.36619 14.539 7.40383 14.6394 7.40383ZM14.6394 10.7372H15.3606C15.461 10.7372 15.5489 10.6995 15.6242 10.6242C15.6994 10.549 15.7371 10.4611 15.7371 10.3607V9.63946C15.7371 9.53904 15.6994 9.45119 15.6242 9.37592C15.5489 9.30064 15.461 9.263 15.3606 9.263H14.6394C14.539 9.263 14.4511 9.30064 14.3758 9.37592C14.3006 9.45119 14.2629 9.53904 14.2629 9.63946V10.3607C14.2629 10.4611 14.3006 10.549 14.3758 10.6242C14.4511 10.6995 14.539 10.7372 14.6394 10.7372ZM14.6394 14.0705H15.3606C15.461 14.0705 15.5489 14.0329 15.6242 13.9576C15.6994 13.8823 15.7371 13.7945 15.7371 13.694V12.9728C15.7371 12.8724 15.6994 12.7845 15.6242 12.7092C15.5489 12.634 15.461 12.5963 15.3606 12.5963H14.6394C14.539 12.5963 14.4511 12.634 14.3758 12.7092C14.3006 12.7845 14.2629 12.8724 14.2629 12.9728V13.694C14.2629 13.7945 14.3006 13.8823 14.3758 13.9576C14.4511 14.0329 14.539 14.0705 14.6394 14.0705Z" fill="#374151"/>
</g>
</svg>
