<svg width="72" height="40" viewBox="0 0 72 40" fill="none" xmlns="http://www.w3.org/2000/svg">
<circle cx="20" cy="20" r="20" fill="#EAEEF3"/>
<circle cx="36" cy="20" r="20" fill="#D4DCE7"/>
<rect x="32" width="40" height="40" rx="20" fill="url(#paint0_linear_7222_4412)"/>
<mask id="mask0_7222_4412" style="mask-type:alpha" maskUnits="userSpaceOnUse" x="40" y="8" width="24" height="24">
<rect x="40" y="8" width="24" height="24" fill="#D9D9D9"/>
</mask>
<g mask="url(#mask0_7222_4412)">
<path d="M41.9232 20.877C41.7745 20.7282 41.7012 20.5541 41.7032 20.3547C41.705 20.1554 41.7835 19.9782 41.9387 19.823C42.0938 19.6782 42.2695 19.6032 42.4657 19.598C42.6617 19.593 42.8372 19.668 42.9924 19.823L46.7157 23.5462L46.9657 23.2962C47.063 23.3424 47.1652 23.3997 47.2724 23.4682C47.3794 23.5369 47.4848 23.6232 47.5887 23.727C47.7438 23.882 47.8188 24.0576 47.8137 24.2537C47.8085 24.4499 47.7283 24.6256 47.5732 24.7807L47.3329 25.0212C47.1521 25.1917 46.9412 25.2795 46.7002 25.2845C46.4592 25.2897 46.2482 25.2019 46.0674 25.0212L41.9232 20.877ZM52.3502 23.5307L61.0232 14.8577C61.172 14.7091 61.3461 14.6357 61.5454 14.6375C61.7447 14.6395 61.922 14.718 62.0772 14.873C62.222 15.0282 62.297 15.2038 62.3022 15.4C62.3072 15.5962 62.2322 15.7718 62.0772 15.927L52.9829 25.0212C52.8021 25.2019 52.5912 25.2922 52.3502 25.2922C52.1092 25.2922 51.8982 25.2019 51.7174 25.0212L47.5732 20.877C47.4348 20.7385 47.364 20.567 47.3607 20.3625C47.3575 20.158 47.4283 19.9782 47.5732 19.823C47.7283 19.668 47.9066 19.5905 48.1079 19.5905C48.3091 19.5905 48.4872 19.668 48.6424 19.823L52.3502 23.5307ZM56.4117 15.9422L52.5309 19.823C52.3924 19.9615 52.2209 20.0323 52.0164 20.0355C51.8119 20.0388 51.6322 19.968 51.4772 19.823C51.322 19.668 51.2444 19.4898 51.2444 19.2885C51.2444 19.0872 51.322 18.909 51.4772 18.754L55.3579 14.873C55.4964 14.7347 55.6678 14.6638 55.8722 14.6605C56.0767 14.6573 56.2565 14.7282 56.4117 14.873C56.5668 15.0282 56.6444 15.2064 56.6444 15.4077C56.6444 15.6089 56.5668 15.7871 56.4117 15.9422Z" fill="white"/>
</g>
<defs>
<linearGradient id="paint0_linear_7222_4412" x1="32" y1="20" x2="72" y2="20" gradientUnits="userSpaceOnUse">
<stop stop-color="#08101B"/>
<stop offset="1" stop-color="#2A5089"/>
</linearGradient>
</defs>
</svg>
