<svg width="72" height="40" viewBox="0 0 72 40" fill="none" xmlns="http://www.w3.org/2000/svg">
<circle cx="20" cy="20" r="20" fill="#EAEEF3"/>
<circle cx="36" cy="20" r="20" fill="#D4DCE7"/>
<rect x="32" width="40" height="40" rx="20" fill="url(#paint0_linear_7222_4404)"/>
<mask id="mask0_7222_4404" style="mask-type:alpha" maskUnits="userSpaceOnUse" x="40" y="8" width="24" height="24">
<rect x="40" y="8" width="24" height="24" fill="#D9D9D9"/>
</mask>
<g mask="url(#mask0_7222_4404)">
<path d="M52.0017 29.5C50.6877 29.5 49.4527 29.2507 48.2965 28.752C47.1403 28.2533 46.1347 27.5766 45.2795 26.7218C44.4243 25.8669 43.7472 24.8617 43.2482 23.706C42.7494 22.5503 42.5 21.3156 42.5 20.0017C42.5 18.6877 42.7493 17.4527 43.248 16.2965C43.7467 15.1403 44.4234 14.1347 45.2783 13.2795C46.1331 12.4243 47.1383 11.7472 48.294 11.2482C49.4497 10.7494 50.6844 10.5 51.9983 10.5C53.3123 10.5 54.5473 10.7493 55.7035 11.248C56.8597 11.7467 57.8653 12.4234 58.7205 13.2783C59.5757 14.1331 60.2528 15.1383 60.7518 16.294C61.2506 17.4497 61.5 18.6844 61.5 19.9983C61.5 21.3123 61.2507 22.5473 60.752 23.7035C60.2533 24.8597 59.5766 25.8653 58.7218 26.7205C57.8669 27.5757 56.8617 28.2528 55.706 28.7518C54.5503 29.2506 53.3156 29.5 52.0017 29.5ZM52 28C54.2333 28 56.125 27.225 57.675 25.675C59.225 24.125 60 22.2333 60 20C60 17.7667 59.225 15.875 57.675 14.325C56.125 12.775 54.2333 12 52 12C49.7667 12 47.875 12.775 46.325 14.325C44.775 15.875 44 17.7667 44 20C44 22.2333 44.775 24.125 46.325 25.675C47.875 27.225 49.7667 28 52 28ZM51.975 26.8078C52.157 26.8078 52.3162 26.7394 52.4528 26.6028C52.5894 26.4663 52.6578 26.307 52.6578 26.125V25.5962C53.4334 25.4911 54.1357 25.1997 54.7645 24.722C55.3933 24.2445 55.7078 23.5205 55.7078 22.55C55.7078 21.85 55.5013 21.2308 55.0885 20.6923C54.6757 20.1539 53.8692 19.6681 52.6692 19.2348C51.6179 18.8758 50.9198 18.5648 50.575 18.302C50.2302 18.0392 50.0578 17.6718 50.0578 17.2C50.0578 16.7282 50.2343 16.3448 50.5875 16.05C50.9407 15.7552 51.4282 15.6077 52.05 15.6077C52.4218 15.6077 52.7472 15.6773 53.026 15.8163C53.3048 15.9554 53.5404 16.141 53.7327 16.373C53.8546 16.5218 53.9956 16.6257 54.1557 16.6845C54.3161 16.7435 54.4678 16.741 54.611 16.677C54.8065 16.6 54.9401 16.4686 55.0117 16.2828C55.0834 16.0968 55.0654 15.9262 54.9578 15.7712C54.6911 15.3942 54.3603 15.0804 53.9653 14.8298C53.5704 14.5791 53.1512 14.4371 52.7078 14.4038V13.875C52.7078 13.693 52.6394 13.5338 52.5027 13.3973C52.3662 13.2606 52.207 13.1923 52.025 13.1923C51.843 13.1923 51.6838 13.2606 51.5473 13.3973C51.4106 13.5338 51.3422 13.693 51.3422 13.875V14.4038C50.4897 14.5679 49.835 14.9138 49.378 15.4413C48.9208 15.9689 48.6923 16.5552 48.6923 17.2C48.6923 17.9513 48.9198 18.5558 49.375 19.0135C49.8302 19.4712 50.5718 19.8846 51.6 20.2537C52.6628 20.6436 53.3888 20.9933 53.778 21.303C54.167 21.6125 54.3615 22.0282 54.3615 22.55C54.3615 23.177 54.1353 23.6324 53.6827 23.9163C53.2301 24.2003 52.7192 24.3422 52.15 24.3422C51.675 24.3422 51.2457 24.2237 50.862 23.9865C50.4783 23.7493 50.157 23.4064 49.898 22.9578C49.7968 22.7821 49.6603 22.6638 49.4885 22.603C49.3167 22.542 49.1485 22.5439 48.984 22.6088C48.8067 22.6736 48.6768 22.7967 48.5945 22.978C48.5123 23.1593 48.5116 23.3327 48.5923 23.498C48.8718 24.0583 49.2365 24.5064 49.6865 24.8422C50.1365 25.1783 50.6718 25.4129 51.2923 25.5462V26.125C51.2923 26.307 51.3606 26.4663 51.4973 26.6028C51.6338 26.7394 51.793 26.8078 51.975 26.8078Z" fill="white"/>
</g>
<defs>
<linearGradient id="paint0_linear_7222_4404" x1="32" y1="20" x2="72" y2="20" gradientUnits="userSpaceOnUse">
<stop stop-color="#08101B"/>
<stop offset="1" stop-color="#2A5089"/>
</linearGradient>
</defs>
</svg>
