<svg width="72" height="40" viewBox="0 0 72 40" fill="none" xmlns="http://www.w3.org/2000/svg">
<circle cx="20" cy="20" r="20" fill="#EAEEF3"/>
<circle cx="36" cy="20" r="20" fill="#D4DCE7"/>
<rect x="32" width="40" height="40" rx="20" fill="url(#paint0_linear_7222_4396)"/>
<mask id="mask0_7222_4396" style="mask-type:alpha" maskUnits="userSpaceOnUse" x="40" y="8" width="24" height="24">
<rect x="40" y="8" width="24" height="24" fill="#D9D9D9"/>
</mask>
<g mask="url(#mask0_7222_4396)">
<path d="M47.125 23.6058C46.9125 23.6058 46.7344 23.5339 46.5908 23.39C46.4469 23.2462 46.375 23.068 46.375 22.8555C46.375 22.6429 46.4469 22.4648 46.5908 22.3213C46.7344 22.1776 46.9125 22.1058 47.125 22.1058H49.0963C49.3088 22.1058 49.4868 22.1777 49.6305 22.3215C49.7743 22.4654 49.8463 22.6435 49.8463 22.856C49.8463 23.0687 49.7743 23.2468 49.6305 23.3903C49.4868 23.534 49.3088 23.6058 49.0963 23.6058H47.125ZM47.125 19.9135C46.9125 19.9135 46.7344 19.8416 46.5908 19.6978C46.4469 19.554 46.375 19.3758 46.375 19.1633C46.375 18.9506 46.4469 18.7725 46.5908 18.6288C46.7344 18.4853 46.9125 18.4135 47.125 18.4135H57.9038C58.1163 18.4135 58.2944 18.4855 58.4383 18.6293C58.5819 18.7731 58.6538 18.9513 58.6538 19.1638C58.6538 19.3765 58.5819 19.5545 58.4383 19.698C58.2944 19.8417 58.1163 19.9135 57.9038 19.9135H47.125ZM47.125 16.2213C46.9125 16.2213 46.7344 16.1494 46.5908 16.0055C46.4469 15.8617 46.375 15.6835 46.375 15.4708C46.375 15.2583 46.4469 15.0802 46.5908 14.9365C46.7344 14.793 46.9125 14.7213 47.125 14.7213H57.9038C58.1163 14.7213 58.2944 14.7932 58.4383 14.937C58.5819 15.0809 58.6538 15.259 58.6538 15.4715C58.6538 15.6842 58.5819 15.8623 58.4383 16.0058C58.2944 16.1495 58.1163 16.2213 57.9038 16.2213H47.125ZM55.8045 27.123C55.6848 27.123 55.5731 27.1038 55.4693 27.0653C55.3654 27.027 55.2668 26.9611 55.1735 26.8678L52.5155 24.2095C52.3667 24.0609 52.2933 23.8843 52.2953 23.6798C52.2971 23.4753 52.3756 23.2955 52.5308 23.1405C52.6859 22.9854 52.8642 22.9078 53.0655 22.9078C53.2667 22.9078 53.4448 22.9854 53.6 23.1405L55.8058 25.3615L60.7308 20.4365C60.8794 20.2879 61.056 20.2145 61.2605 20.2163C61.465 20.2183 61.6455 20.2969 61.802 20.452C61.9455 20.6072 62.0198 20.7828 62.025 20.9788C62.0302 21.175 61.9552 21.3506 61.8 21.5058L56.4403 26.8653C56.3454 26.9603 56.2457 27.027 56.141 27.0653C56.0364 27.1038 55.9242 27.123 55.8045 27.123ZM43.3485 16.298C43.1148 16.298 42.9183 16.219 42.7588 16.061C42.5991 15.903 42.5193 15.7072 42.5193 15.4735C42.5193 15.2399 42.5983 15.0433 42.7563 14.8838C42.9144 14.7241 43.1103 14.6443 43.3438 14.6443C43.5774 14.6443 43.7741 14.7233 43.9338 14.8813C44.0933 15.0395 44.173 15.2353 44.173 15.4688C44.173 15.7025 44.094 15.8991 43.936 16.0588C43.778 16.2183 43.5822 16.298 43.3485 16.298ZM43.3485 19.9905C43.1148 19.9905 42.9167 19.9091 42.754 19.7463C42.5912 19.5835 42.5098 19.3852 42.5098 19.1515C42.5098 18.9179 42.5912 18.722 42.754 18.564C42.9167 18.406 43.1148 18.327 43.3485 18.327C43.5822 18.327 43.778 18.406 43.936 18.564C44.094 18.722 44.173 18.9179 44.173 19.1515C44.173 19.3852 44.094 19.5835 43.936 19.7463C43.778 19.9091 43.5822 19.9905 43.3485 19.9905ZM43.3485 23.6923C43.1148 23.6923 42.9167 23.6109 42.754 23.448C42.5912 23.2852 42.5098 23.087 42.5098 22.8535C42.5098 22.6199 42.5912 22.424 42.754 22.266C42.9167 22.1079 43.1148 22.0288 43.3485 22.0288C43.5822 22.0288 43.778 22.1079 43.936 22.266C44.094 22.424 44.173 22.6199 44.173 22.8535C44.173 23.087 44.094 23.2852 43.936 23.448C43.778 23.6109 43.5822 23.6923 43.3485 23.6923Z" fill="white"/>
</g>
<defs>
<linearGradient id="paint0_linear_7222_4396" x1="32" y1="20" x2="72" y2="20" gradientUnits="userSpaceOnUse">
<stop stop-color="#08101B"/>
<stop offset="1" stop-color="#2A5089"/>
</linearGradient>
</defs>
</svg>
