<svg width="72" height="40" viewBox="0 0 72 40" fill="none" xmlns="http://www.w3.org/2000/svg">
<circle cx="20" cy="20" r="20" fill="#EAEEF3"/>
<circle cx="36" cy="20" r="20" fill="#D4DCE7"/>
<rect x="32" width="40" height="40" rx="20" fill="url(#paint0_linear_7222_4380)"/>
<mask id="mask0_7222_4380" style="mask-type:alpha" maskUnits="userSpaceOnUse" x="40" y="8" width="24" height="24">
<rect x="40" y="8" width="24" height="24" fill="#D9D9D9"/>
</mask>
<g mask="url(#mask0_7222_4380)">
<path d="M48.8501 24.825L52.0001 22.925L55.1501 24.85L54.3251 21.25L57.1001 18.85L53.4501 18.525L52.0001 15.125L50.5501 18.5L46.9001 18.825L49.6751 21.25L48.8501 24.825ZM52.0001 24.6885L48.1099 27.0345C47.9649 27.1192 47.8196 27.1547 47.6741 27.1412C47.5286 27.1277 47.397 27.0787 47.2791 26.9942C47.1611 26.9096 47.07 26.799 47.0059 26.6625C46.9419 26.526 46.9316 26.375 46.9751 26.2095L48.0079 21.7922L44.5734 18.8192C44.445 18.7077 44.3633 18.5786 44.3281 18.4317C44.2928 18.2849 44.302 18.1422 44.3559 18.0037C44.4097 17.8654 44.4873 17.7523 44.5886 17.6645C44.69 17.5767 44.8285 17.5192 45.0041 17.4922L49.5366 17.0962L51.2964 12.925C51.3604 12.7698 51.4575 12.6551 51.5876 12.5807C51.7178 12.5064 51.8553 12.4692 52.0001 12.4692C52.145 12.4692 52.2825 12.5064 52.4126 12.5807C52.5428 12.6551 52.6399 12.7698 52.7039 12.925L54.4636 17.0962L58.9961 17.4922C59.1718 17.5192 59.3103 17.5767 59.4116 17.6645C59.513 17.7523 59.5905 17.8654 59.6444 18.0037C59.6982 18.1422 59.7075 18.2849 59.6721 18.4317C59.637 18.5786 59.5552 18.7077 59.4269 18.8192L55.9924 21.7922L57.0251 26.2095C57.0686 26.375 57.0584 26.526 56.9944 26.6625C56.9302 26.799 56.8391 26.9096 56.7211 26.9942C56.6033 27.0787 56.4716 27.1277 56.3261 27.1412C56.1806 27.1547 56.0354 27.1192 55.8904 27.0345L52.0001 24.6885Z" fill="white"/>
</g>
<defs>
<linearGradient id="paint0_linear_7222_4380" x1="32" y1="20" x2="72" y2="20" gradientUnits="userSpaceOnUse">
<stop stop-color="#08101B"/>
<stop offset="1" stop-color="#2A5089"/>
</linearGradient>
</defs>
</svg>
