<svg width="72" height="40" viewBox="0 0 72 40" fill="none" xmlns="http://www.w3.org/2000/svg">
<circle cx="20" cy="20" r="20" fill="#EAEEF3"/>
<circle cx="36" cy="20" r="20" fill="#D4DCE7"/>
<rect x="32" width="40" height="40" rx="20" fill="url(#paint0_linear_7157_2116)"/>
<mask id="mask0_7157_2116" style="mask-type:alpha" maskUnits="userSpaceOnUse" x="40" y="8" width="24" height="24">
<rect x="40" y="8" width="24" height="24" fill="#D9D9D9"/>
</mask>
<g mask="url(#mask0_7157_2116)">
<path d="M45.404 28.5C45.1462 28.5 44.9311 28.4138 44.7588 28.2413C44.5863 28.0689 44.5 27.8538 44.5 27.596V25.873C44.5 25.632 44.5468 25.4003 44.6405 25.178C44.734 24.9555 44.8628 24.7622 45.027 24.598L57.6943 11.9462C57.8494 11.7911 58.0199 11.6779 58.2057 11.6068C58.3917 11.5356 58.5777 11.5 58.7635 11.5C58.9597 11.5 59.1497 11.5356 59.3337 11.6068C59.5176 11.6779 59.6788 11.7911 59.8173 11.9462L61.0538 13.1827C61.2089 13.3212 61.3221 13.4824 61.3932 13.6663C61.4644 13.8503 61.5 14.0403 61.5 14.2365C61.5 14.4223 61.4644 14.6083 61.3932 14.7943C61.3221 14.9801 61.2089 15.1506 61.0538 15.3057L48.402 27.973C48.2378 28.1372 48.0445 28.266 47.822 28.3595C47.5997 28.4532 47.368 28.5 47.127 28.5H45.404ZM46 27H47.2365L57.427 16.825L56.8135 16.1865L56.175 15.573L46 25.7635V27ZM56.8135 16.1865L56.175 15.573L57.427 16.825L56.8135 16.1865ZM54.1348 28.5C55.3039 28.5 56.3878 28.2141 57.3865 27.6423C58.3852 27.0704 58.8845 26.273 58.8845 25.25C58.8845 24.7295 58.7384 24.267 58.4462 23.8625C58.1539 23.458 57.7494 23.0987 57.2327 22.7845C57.0571 22.6692 56.8696 22.6211 56.6702 22.6403C56.4709 22.6596 56.3084 22.7468 56.1827 22.902C56.0571 23.057 56.0038 23.2419 56.023 23.4567C56.0423 23.6714 56.1398 23.8365 56.3155 23.952C56.645 24.148 56.9056 24.3515 57.0973 24.5625C57.2889 24.7733 57.3848 25.0025 57.3848 25.25C57.3848 25.723 57.0598 26.1329 56.4098 26.4798C55.7598 26.8266 55.0014 27 54.1348 27C53.9219 27 53.7437 27.0718 53.6 27.2155C53.4565 27.359 53.3848 27.5372 53.3848 27.75C53.3848 27.9628 53.4565 28.141 53.6 28.2845C53.7437 28.4282 53.9219 28.5 54.1348 28.5ZM49.5 14.25C49.5 14.541 49.3349 14.8048 49.0048 15.0415C48.6748 15.278 47.9751 15.6379 46.9058 16.1212C45.6173 16.6852 44.7275 17.1903 44.2365 17.6365C43.7455 18.0827 43.5 18.6205 43.5 19.25C43.5 19.6642 43.6064 20.0267 43.8193 20.3375C44.0321 20.6483 44.2968 20.916 44.6135 21.1405C44.7788 21.2725 44.9596 21.3244 45.1557 21.2963C45.3519 21.2679 45.516 21.1711 45.648 21.0058C45.7802 20.8404 45.8347 20.6581 45.8115 20.4588C45.7885 20.2594 45.6942 20.0937 45.5287 19.9615C45.3544 19.8462 45.2228 19.7292 45.1338 19.6105C45.0446 19.492 45 19.3718 45 19.25C45 18.9987 45.1677 18.7506 45.503 18.5057C45.8382 18.2609 46.5051 17.9238 47.5037 17.4943C48.8936 16.8994 49.8238 16.3613 50.2943 15.8798C50.7648 15.3984 51 14.8552 51 14.25C51 13.4295 50.6542 12.7661 49.9625 12.2598C49.2708 11.7533 48.3667 11.5 47.25 11.5C46.5642 11.5 45.9334 11.6237 45.3577 11.8712C44.7821 12.1186 44.3519 12.4212 44.0673 12.779C43.9289 12.9443 43.8716 13.1267 43.8952 13.326C43.9189 13.5253 44.0135 13.6891 44.179 13.8173C44.3443 13.9494 44.5251 14.0036 44.7213 13.9798C44.9174 13.9561 45.0847 13.875 45.223 13.7365C45.4757 13.484 45.7661 13.2981 46.0943 13.1788C46.4224 13.0596 46.8077 13 47.25 13C47.9847 13 48.5433 13.124 48.926 13.372C49.3087 13.6202 49.5 13.9128 49.5 14.25Z" fill="white"/>
</g>
<defs>
<linearGradient id="paint0_linear_7157_2116" x1="32" y1="20" x2="72" y2="20" gradientUnits="userSpaceOnUse">
<stop stop-color="#08101B"/>
<stop offset="1" stop-color="#2A5089"/>
</linearGradient>
</defs>
</svg>
