<svg width="72" height="40" viewBox="0 0 72 40" fill="none" xmlns="http://www.w3.org/2000/svg">
<circle cx="20" cy="20" r="20" fill="#EAEEF3"/>
<circle cx="36" cy="20" r="20" fill="#D4DCE7"/>
<rect x="32" width="40" height="40" rx="20" fill="url(#paint0_linear_7222_4388)"/>
<mask id="mask0_7222_4388" style="mask-type:alpha" maskUnits="userSpaceOnUse" x="40" y="8" width="24" height="24">
<rect x="40" y="8" width="24" height="24" fill="#D9D9D9"/>
</mask>
<g mask="url(#mask0_7222_4388)">
<path d="M54 16.75C53.7875 16.75 53.6094 16.6781 53.4658 16.5342C53.3219 16.3904 53.25 16.2122 53.25 15.9997C53.25 15.7871 53.3219 15.609 53.4658 15.4655C53.6094 15.3218 53.7875 15.25 54 15.25H56.25V12C56.25 11.7875 56.3219 11.6094 56.4658 11.4658C56.6096 11.3219 56.7878 11.25 57.0003 11.25C57.2129 11.25 57.391 11.3219 57.5345 11.4658C57.6782 11.6094 57.75 11.7875 57.75 12V15.25H60C60.2125 15.25 60.3906 15.3219 60.5343 15.4658C60.6781 15.6096 60.75 15.7878 60.75 16.0003C60.75 16.2129 60.6781 16.391 60.5343 16.5345C60.3906 16.6782 60.2125 16.75 60 16.75H54ZM56.9998 28.75C56.7871 28.75 56.609 28.6781 56.4655 28.5343C56.3218 28.3906 56.25 28.2125 56.25 28V20C56.25 19.7875 56.3219 19.6094 56.4658 19.4658C56.6096 19.3219 56.7878 19.25 57.0003 19.25C57.2129 19.25 57.391 19.3219 57.5345 19.4658C57.6782 19.6094 57.75 19.7875 57.75 20V28C57.75 28.2125 57.6781 28.3906 57.5343 28.5343C57.3904 28.6781 57.2122 28.75 56.9998 28.75ZM46.9997 28.75C46.7871 28.75 46.609 28.6781 46.4655 28.5343C46.3218 28.3906 46.25 28.2125 46.25 28V24.75H44C43.7875 24.75 43.6094 24.6781 43.4658 24.5343C43.3219 24.3904 43.25 24.2122 43.25 23.9998C43.25 23.7871 43.3219 23.609 43.4658 23.4655C43.6094 23.3218 43.7875 23.25 44 23.25H50C50.2125 23.25 50.3906 23.3219 50.5342 23.4658C50.6781 23.6096 50.75 23.7878 50.75 24.0003C50.75 24.2129 50.6781 24.391 50.5342 24.5345C50.3906 24.6782 50.2125 24.75 50 24.75H47.75V28C47.75 28.2125 47.6781 28.3906 47.5342 28.5343C47.3904 28.6781 47.2122 28.75 46.9997 28.75ZM46.9997 20.75C46.7871 20.75 46.609 20.6781 46.4655 20.5343C46.3218 20.3906 46.25 20.2125 46.25 20V12C46.25 11.7875 46.3219 11.6094 46.4658 11.4658C46.6096 11.3219 46.7878 11.25 47.0003 11.25C47.2129 11.25 47.391 11.3219 47.5345 11.4658C47.6782 11.6094 47.75 11.7875 47.75 12V20C47.75 20.2125 47.6781 20.3906 47.5342 20.5343C47.3904 20.6781 47.2122 20.75 46.9997 20.75Z" fill="white"/>
</g>
<defs>
<linearGradient id="paint0_linear_7222_4388" x1="32" y1="20" x2="72" y2="20" gradientUnits="userSpaceOnUse">
<stop stop-color="#08101B"/>
<stop offset="1" stop-color="#2A5089"/>
</linearGradient>
</defs>
</svg>
