<svg width="14" height="14" viewBox="0 0 14 14" fill="none" xmlns="http://www.w3.org/2000/svg">
<path d="M7.56099 1.54553C8.17463 1.54717 8.48608 1.55044 8.75499 1.55808L8.86081 1.5619C8.98299 1.56626 9.10354 1.57171 9.24917 1.57826C9.82954 1.60553 10.2255 1.69717 10.573 1.8319C10.933 1.97044 11.2363 2.15808 11.5395 2.4608C11.817 2.73339 12.0316 3.06324 12.1684 3.42735C12.3032 3.7748 12.3948 4.1708 12.4221 4.75171C12.4286 4.89681 12.4341 5.01735 12.4384 5.14008L12.4417 5.2459C12.4499 5.51426 12.4532 5.82571 12.4543 6.43935L12.4548 6.84626V7.5608C12.4561 7.95866 12.452 8.35652 12.4423 8.75426L12.439 8.86008C12.4346 8.98281 12.4292 9.10335 12.4226 9.24844C12.3954 9.82935 12.3026 10.2248 12.1684 10.5728C12.0316 10.9369 11.817 11.2668 11.5395 11.5394C11.267 11.8168 10.9371 12.0315 10.573 12.1683C10.2255 12.303 9.82954 12.3946 9.24917 12.4219L8.86081 12.4383L8.75499 12.4415C8.48608 12.4492 8.17463 12.453 7.56099 12.4541L7.15408 12.4546H6.44008C6.04204 12.456 5.64401 12.4518 5.24608 12.4421L5.14027 12.4388C5.01078 12.4339 4.88132 12.4283 4.7519 12.4219C4.17154 12.3946 3.77554 12.303 3.42754 12.1683C3.06363 12.0314 2.73396 11.8168 2.46154 11.5394C2.18387 11.2668 1.96905 10.937 1.83208 10.5728C1.69736 10.2254 1.60572 9.82935 1.57845 9.24844L1.56208 8.86008L1.55936 8.75426C1.5493 8.35652 1.54476 7.95867 1.54572 7.5608V6.43935C1.54421 6.0415 1.54821 5.64364 1.55772 5.2459L1.56154 5.14008C1.5659 5.01735 1.57136 4.89681 1.5779 4.75171C1.60517 4.1708 1.69681 3.77535 1.83154 3.42735C1.96883 3.06309 2.18402 2.73322 2.46208 2.4608C2.73435 2.18347 3.06382 1.96885 3.42754 1.8319C3.77554 1.69717 4.17099 1.60553 4.7519 1.57826C4.89699 1.57171 5.01808 1.56626 5.14027 1.5619L5.24608 1.55862C5.64383 1.54893 6.04168 1.54475 6.43954 1.54608L7.56099 1.54553ZM7.00027 4.2728C6.27695 4.2728 5.58326 4.56014 5.07179 5.0716C4.56033 5.58307 4.27299 6.27676 4.27299 7.00008C4.27299 7.7234 4.56033 8.41709 5.07179 8.92855C5.58326 9.44001 6.27695 9.72735 7.00027 9.72735C7.72358 9.72735 8.41728 9.44001 8.92874 8.92855C9.4402 8.41709 9.72754 7.7234 9.72754 7.00008C9.72754 6.27676 9.4402 5.58307 8.92874 5.0716C8.41728 4.56014 7.72358 4.2728 7.00027 4.2728ZM7.00027 5.36371C7.21516 5.36368 7.42795 5.40597 7.6265 5.48817C7.82504 5.57037 8.00545 5.69088 8.15743 5.8428C8.30941 5.99473 8.42997 6.1751 8.51224 6.37362C8.5945 6.57214 8.63687 6.78491 8.6369 6.99981C8.63694 7.2147 8.59465 7.42749 8.51245 7.62604C8.43024 7.82458 8.30974 8.00499 8.15782 8.15697C8.00589 8.30894 7.82552 8.42951 7.627 8.51178C7.42848 8.59404 7.2157 8.63641 7.00081 8.63644C6.56682 8.63644 6.15061 8.46404 5.84373 8.15716C5.53685 7.85028 5.36445 7.43407 5.36445 7.00008C5.36445 6.56609 5.53685 6.14987 5.84373 5.84299C6.15061 5.53612 6.56682 5.36371 7.00081 5.36371M9.86445 3.45462C9.68362 3.45462 9.5102 3.52646 9.38233 3.65432C9.25446 3.78219 9.18263 3.95561 9.18263 4.13644C9.18263 4.31727 9.25446 4.49069 9.38233 4.61856C9.5102 4.74643 9.68362 4.81826 9.86445 4.81826C10.0453 4.81826 10.2187 4.74643 10.3466 4.61856C10.4744 4.49069 10.5463 4.31727 10.5463 4.13644C10.5463 3.95561 10.4744 3.78219 10.3466 3.65432C10.2187 3.52646 10.0453 3.45462 9.86445 3.45462Z" fill="white"/>
</svg>
