<svg width="14" height="14" viewBox="0 0 14 14" fill="none" xmlns="http://www.w3.org/2000/svg">
<g clip-path="url(#clip0_7157_2344)">
<path d="M3.42902 4.69034V13.1364H0.616522V4.69034H3.42902ZM3.608 2.08239C3.61368 2.49716 3.47021 2.84375 3.1776 3.12216C2.88499 3.40057 2.50004 3.53977 2.02277 3.53977H2.00573C1.53982 3.53977 1.16482 3.40057 0.880726 3.12216C0.596635 2.84375 0.45459 2.49716 0.45459 2.08239C0.45459 1.66193 0.600897 1.31392 0.89351 1.03835C1.18612 0.762784 1.56823 0.625 2.03982 0.625C2.51141 0.625 2.88925 0.762784 3.17334 1.03835C3.45743 1.31392 3.60232 1.66193 3.608 2.08239ZM13.5455 8.29545V13.1364H10.7415V8.61932C10.7415 8.02273 10.6265 7.5554 10.3964 7.21733C10.1662 6.87926 9.80686 6.71023 9.31823 6.71023C8.96027 6.71023 8.66056 6.80824 8.41908 7.00426C8.1776 7.20028 7.9972 7.44318 7.87789 7.73295C7.81539 7.90341 7.78414 8.13352 7.78414 8.4233V13.1364H4.98016C4.99152 10.8693 4.9972 9.03125 4.9972 7.62216C4.9972 6.21307 4.99436 5.37216 4.98868 5.09943L4.98016 4.69034H7.78414V5.91761H7.76709C7.88073 5.7358 7.9972 5.5767 8.11652 5.44034C8.23584 5.30398 8.39635 5.15625 8.59806 4.99716C8.79976 4.83807 9.04692 4.71449 9.33953 4.62642C9.63215 4.53835 9.95743 4.49432 10.3154 4.49432C11.287 4.49432 12.0682 4.81676 12.6591 5.46165C13.25 6.10653 13.5455 7.05114 13.5455 8.29545Z" fill="white"/>
</g>
<defs>
<clipPath id="clip0_7157_2344">
<rect width="13.0909" height="12.8182" fill="white" transform="translate(0.45459 0.45459)"/>
</clipPath>
</defs>
</svg>
