<svg width="25" height="24" viewBox="0 0 25 24" fill="none" xmlns="http://www.w3.org/2000/svg">
<mask id="mask0_7327_811" style="mask-type:alpha" maskUnits="userSpaceOnUse" x="0" y="0" width="25" height="24">
<rect x="0.666748" width="24" height="24" fill="#D9D9D9"/>
</mask>
<g mask="url(#mask0_7327_811)">
<path d="M12.1868 14.174L9.03571 11.0229C8.99224 10.9794 8.95801 10.9309 8.93301 10.8773C8.90801 10.8237 8.89551 10.7662 8.89551 10.7049C8.89551 10.5824 8.93694 10.476 9.01981 10.3856C9.10266 10.2952 9.21187 10.25 9.34743 10.25H15.9858C16.1214 10.25 16.2306 10.2956 16.3135 10.3869C16.3963 10.4781 16.4378 10.5846 16.4378 10.7063C16.4378 10.7367 16.391 10.8423 16.2974 11.0231L13.1464 14.174C13.074 14.2464 12.9991 14.2993 12.9218 14.3327C12.8445 14.366 12.7594 14.3827 12.6666 14.3827C12.5738 14.3827 12.4888 14.366 12.4115 14.3327C12.3341 14.2993 12.2593 14.2464 12.1868 14.174Z" fill="#6B7280"/>
</g>
</svg>
