<svg width="20" height="20" viewBox="0 0 20 20" fill="none" xmlns="http://www.w3.org/2000/svg">
<mask id="mask0_7327_773" style="mask-type:alpha" maskUnits="userSpaceOnUse" x="0" y="0" width="20" height="20">
<rect width="20" height="20" fill="#D9D9D9"/>
</mask>
<g mask="url(#mask0_7327_773)">
<path d="M3.4295 16.4103V8.84611H3.34929C2.99777 8.84611 2.69888 8.72299 2.45263 8.47674C2.20638 8.23049 2.08325 7.93167 2.08325 7.58028V5.76924C2.08325 5.41785 2.20638 5.11903 2.45263 4.87278C2.69888 4.62653 2.99777 4.5034 3.34929 4.5034H6.39263C6.27513 4.36771 6.19527 4.21486 6.15304 4.04486C6.11082 3.875 6.08971 3.6966 6.08971 3.50965C6.08971 2.88646 6.30784 2.35674 6.74409 1.92049C7.18034 1.48424 7.71006 1.26611 8.33325 1.26611C8.6527 1.26611 8.94867 1.33313 9.22117 1.46715C9.49353 1.60132 9.73707 1.78056 9.95179 2.00486C10.1665 1.77195 10.4101 1.59063 10.6826 1.4609C10.955 1.33104 11.2509 1.26611 11.5703 1.26611C12.1937 1.26611 12.7235 1.48424 13.1597 1.92049C13.596 2.35674 13.8141 2.88646 13.8141 3.50965C13.8141 3.69452 13.7908 3.87028 13.7443 4.03695C13.6978 4.20361 13.6201 4.3591 13.5112 4.5034H16.6505C17.0021 4.5034 17.301 4.62653 17.5472 4.87278C17.7935 5.11903 17.9166 5.41785 17.9166 5.76924V7.58028C17.9166 7.93167 17.7935 8.23049 17.5472 8.47674C17.301 8.72299 17.0021 8.84611 16.6505 8.84611H16.5703V16.4103C16.5703 16.8246 16.4228 17.1792 16.1278 17.4742C15.8328 17.7692 15.4783 17.9167 15.0641 17.9167H4.93575C4.52159 17.9167 4.167 17.7692 3.872 17.4742C3.577 17.1792 3.4295 16.8246 3.4295 16.4103ZM11.5703 2.51611C11.2888 2.51611 11.0528 2.61132 10.8624 2.80174C10.672 2.99215 10.5768 3.22813 10.5768 3.50965C10.5768 3.79118 10.672 4.02715 10.8624 4.21757C11.0528 4.40813 11.2888 4.5034 11.5703 4.5034C11.8519 4.5034 12.0879 4.40813 12.2785 4.21757C12.4689 4.02715 12.5641 3.79118 12.5641 3.50965C12.5641 3.22813 12.4689 2.99215 12.2785 2.80174C12.0879 2.61132 11.8519 2.51611 11.5703 2.51611ZM7.33971 3.50965C7.33971 3.79118 7.43492 4.02715 7.62534 4.21757C7.81575 4.40813 8.05172 4.5034 8.33325 4.5034C8.61478 4.5034 8.85075 4.40813 9.04117 4.21757C9.23159 4.02715 9.32679 3.79118 9.32679 3.50965C9.32679 3.22813 9.23159 2.99215 9.04117 2.80174C8.85075 2.61132 8.61478 2.51611 8.33325 2.51611C8.05172 2.51611 7.81575 2.61132 7.62534 2.80174C7.43492 2.99215 7.33971 3.22813 7.33971 3.50965ZM3.33325 5.7532V7.59632H9.37492V5.7532H3.33325ZM9.37492 16.6667V8.84611H4.67929V16.4103C4.67929 16.4851 4.70339 16.5466 4.75159 16.5947C4.79964 16.6427 4.86103 16.6667 4.93575 16.6667H9.37492ZM10.6249 16.6667H15.0641C15.1388 16.6667 15.2002 16.6427 15.2483 16.5947C15.2964 16.5466 15.3205 16.4851 15.3205 16.4103V8.84611H10.6249V16.6667ZM16.6666 7.59632V5.7532H10.6249V7.59632H16.6666Z" fill="#374151"/>
</g>
</svg>
