<svg width="24" height="24" viewBox="0 0 24 24" fill="none" xmlns="http://www.w3.org/2000/svg">
<mask id="mask0_7327_153" style="mask-type:alpha" maskUnits="userSpaceOnUse" x="0" y="0" width="24" height="24">
<rect width="24" height="24" fill="#D9D9D9"/>
</mask>
<g mask="url(#mask0_7327_153)">
<path d="M12.0001 13.5C11.3014 13.5 10.7101 13.258 10.2261 12.774C9.74211 12.29 9.50011 11.6987 9.50011 11V5C9.50011 4.30133 9.74211 3.71 10.2261 3.226C10.7101 2.742 11.3014 2.5 12.0001 2.5C12.6988 2.5 13.2901 2.742 13.7741 3.226C14.2581 3.71 14.5001 4.30133 14.5001 5V11C14.5001 11.6987 14.2581 12.29 13.7741 12.774C13.2901 13.258 12.6988 13.5 12.0001 13.5ZM11.2501 20V17.4538C9.76161 17.2819 8.48594 16.6704 7.42311 15.6193C6.36044 14.5679 5.73802 13.2865 5.55586 11.775C5.52902 11.5622 5.58477 11.3798 5.72311 11.228C5.86161 11.076 6.03727 11 6.25011 11C6.46294 11 6.64111 11.0734 6.78461 11.2203C6.92827 11.3669 7.02386 11.5467 7.07136 11.7595C7.25336 12.984 7.81327 13.9968 8.75111 14.798C9.68894 15.5993 10.7719 16 12.0001 16C13.2449 16 14.3321 15.5952 15.2616 14.7855C16.1911 13.976 16.7469 12.9673 16.9289 11.7595C16.9764 11.5467 17.0719 11.3669 17.2156 11.2203C17.3591 11.0734 17.5373 11 17.7501 11C17.9629 11 18.1386 11.076 18.2771 11.228C18.4154 11.3798 18.4712 11.5622 18.4444 11.775C18.2622 13.2532 17.6439 14.5247 16.5896 15.5895C15.5351 16.6542 14.2553 17.2756 12.7501 17.4538V20C12.7501 20.2128 12.6783 20.391 12.5346 20.5345C12.3911 20.6782 12.2129 20.75 12.0001 20.75C11.7873 20.75 11.6091 20.6782 11.4656 20.5345C11.3219 20.391 11.2501 20.2128 11.2501 20Z" fill="#111827"/>
</g>
</svg>
