<svg width="24" height="25" viewBox="0 0 24 25" fill="none" xmlns="http://www.w3.org/2000/svg">
<mask id="mask0_7157_2265" style="mask-type:alpha" maskUnits="userSpaceOnUse" x="0" y="0" width="24" height="25">
<rect y="0.5" width="24" height="24" fill="#D9D9D9"/>
</mask>
<g mask="url(#mask0_7157_2265)">
<path d="M16.6269 13.25H5.25C5.03718 13.25 4.85898 13.1782 4.7154 13.0346C4.5718 12.891 4.5 12.7128 4.5 12.5C4.5 12.2872 4.5718 12.109 4.7154 11.9654C4.85898 11.8218 5.03718 11.75 5.25 11.75H16.6269L11.4577 6.58077C11.309 6.43205 11.2356 6.25802 11.2375 6.05867C11.2394 5.8593 11.3179 5.68206 11.4731 5.52694C11.6282 5.38208 11.8038 5.30708 12 5.30194C12.1961 5.29681 12.3718 5.37181 12.5269 5.52694L18.8672 11.8673C18.9608 11.9609 19.0269 12.0596 19.0653 12.1635C19.1038 12.2673 19.123 12.3795 19.123 12.5C19.123 12.6205 19.1038 12.7327 19.0653 12.8365C19.0269 12.9404 18.9608 13.0391 18.8672 13.1327L12.5269 19.473C12.3884 19.6115 12.217 19.6823 12.0125 19.6855C11.808 19.6887 11.6282 19.6179 11.4731 19.473C11.3179 19.3179 11.2404 19.1397 11.2404 18.9384C11.2404 18.7372 11.3179 18.559 11.4731 18.4038L16.6269 13.25Z" fill="#D1D5DB"/>
</g>
</svg>
