<svg width="40" height="40" viewBox="0 0 40 40" fill="none" xmlns="http://www.w3.org/2000/svg">
<mask id="mask0_7157_2279" style="mask-type:alpha" maskUnits="userSpaceOnUse" x="0" y="0" width="40" height="40">
<rect width="40" height="40" fill="#D9D9D9"/>
</mask>
<g mask="url(#mask0_7157_2279)">
<path d="M11.3011 27.5479L14.1507 22.6121C14.0546 22.6654 13.9423 22.7028 13.814 22.7242C13.6857 22.7456 13.5575 22.7563 13.4294 22.7563C11.735 22.7563 10.2964 22.1596 9.11359 20.9663C7.93109 19.7729 7.33984 18.3397 7.33984 16.6667C7.33984 14.9722 7.93109 13.5336 9.11359 12.3508C10.2964 11.1683 11.735 10.5771 13.4294 10.5771C15.1025 10.5771 16.5357 11.1683 17.729 12.3508C18.9223 13.5336 19.519 14.9722 19.519 16.6667C19.519 17.2522 19.448 17.7971 19.3061 18.3013C19.1639 18.8054 18.956 19.2863 18.6823 19.7438L13.4548 28.7979C13.3482 28.984 13.2018 29.1347 13.0157 29.25C12.8298 29.3653 12.6215 29.4229 12.3907 29.4229C11.9121 29.4229 11.5532 29.2146 11.314 28.7979C11.0746 28.3813 11.0703 27.9646 11.3011 27.5479ZM26.109 27.5479L28.9582 22.6121C28.8621 22.6654 28.7498 22.7028 28.6215 22.7242C28.4935 22.7456 28.3653 22.7563 28.2369 22.7563C26.5425 22.7563 25.104 22.1596 23.9215 20.9663C22.7387 19.7729 22.1473 18.3397 22.1473 16.6667C22.1473 14.9617 22.7387 13.5204 23.9215 12.3429C25.104 11.1657 26.5425 10.5771 28.2369 10.5771C29.91 10.5771 31.3432 11.1683 32.5365 12.3508C33.7298 13.5336 34.3265 14.9722 34.3265 16.6667C34.3265 17.2522 34.2555 17.7971 34.1136 18.3013C33.9714 18.8054 33.7636 19.2863 33.4903 19.7438L28.2628 28.7979C28.1558 28.984 28.0094 29.1347 27.8236 29.25C27.6378 29.3653 27.4294 29.4229 27.1986 29.4229C26.72 29.4229 26.361 29.2146 26.1215 28.7979C25.8823 28.3813 25.8782 27.9646 26.109 27.5479Z" fill="#E5E7EB"/>
</g>
</svg>
