<svg width="80" height="80" viewBox="0 0 80 80" fill="none" xmlns="http://www.w3.org/2000/svg">
<mask id="mask0_7222_4896" style="mask-type:alpha" maskUnits="userSpaceOnUse" x="0" y="0" width="80" height="80">
<rect width="80" height="80" fill="#D9D9D9"/>
</mask>
<g mask="url(#mask0_7222_4896)">
<path d="M28.3333 54.8141V25.1857C28.3333 24.3057 28.6352 23.5835 29.2391 23.019C29.843 22.4552 30.5477 22.1732 31.3533 22.1732C31.6049 22.1732 31.8688 22.2096 32.1449 22.2824C32.421 22.3546 32.6846 22.4635 32.9358 22.609L56.2558 37.4549C56.7135 37.7671 57.0566 38.141 57.2849 38.5766C57.5138 39.0127 57.6283 39.4871 57.6283 39.9999C57.6283 40.5127 57.5138 40.9871 57.2849 41.4232C57.0566 41.8588 56.7135 42.2327 56.2558 42.5449L32.9358 57.3907C32.6841 57.5363 32.4196 57.6452 32.1424 57.7174C31.8658 57.7902 31.6016 57.8266 31.3499 57.8266C30.5438 57.8266 29.8396 57.5446 29.2374 56.9807C28.6346 56.4163 28.3333 55.694 28.3333 54.8141Z" fill="white"/>
</g>
</svg>
