<svg width="24" height="25" viewBox="0 0 24 25" fill="none" xmlns="http://www.w3.org/2000/svg">
<mask id="mask0_7157_2263" style="mask-type:alpha" maskUnits="userSpaceOnUse" x="0" y="0" width="24" height="25">
<rect y="0.5" width="24" height="24" fill="#D9D9D9"/>
</mask>
<g mask="url(#mask0_7157_2263)">
<path d="M7.37305 13.25L12.5423 18.4192C12.691 18.5679 12.7644 18.742 12.7625 18.9413C12.7606 19.1407 12.682 19.3179 12.5269 19.473C12.3718 19.6179 12.1962 19.6929 12 19.698C11.8039 19.7032 11.6282 19.6282 11.4731 19.473L5.13273 13.1327C5.03914 13.0391 4.97312 12.9404 4.93465 12.8365C4.89619 12.7327 4.87695 12.6205 4.87695 12.5C4.87695 12.3795 4.89619 12.2673 4.93465 12.1635C4.97312 12.0596 5.03914 11.9609 5.13273 11.8673L11.4731 5.52693C11.6116 5.38847 11.783 5.31763 11.9875 5.31443C12.192 5.31123 12.3718 5.38207 12.5269 5.52693C12.682 5.68205 12.7596 5.86025 12.7596 6.06153C12.7596 6.26282 12.682 6.44102 12.5269 6.59614L7.37305 11.75H18.75C18.9628 11.75 19.141 11.8218 19.2846 11.9654C19.4282 12.109 19.5 12.2872 19.5 12.5C19.5 12.7128 19.4282 12.891 19.2846 13.0346C19.141 13.1782 18.9628 13.25 18.75 13.25H7.37305Z" fill="#D1D5DB"/>
</g>
</svg>
