<svg width="20" height="20" viewBox="0 0 20 20" fill="none" xmlns="http://www.w3.org/2000/svg">
<mask id="mask0_7327_461" style="mask-type:alpha" maskUnits="userSpaceOnUse" x="0" y="0" width="20" height="20">
<rect width="20" height="20" fill="#D9D9D9"/>
</mask>
<g mask="url(#mask0_7327_461)">
<path d="M3.58971 17.0834C3.16874 17.0834 2.81242 16.9376 2.52075 16.6459C2.22909 16.3542 2.08325 15.9979 2.08325 15.577V6.08987C2.08325 5.6689 2.22909 5.31258 2.52075 5.02092C2.81242 4.72925 3.16874 4.58341 3.58971 4.58341H6.1345L7.22429 3.40237C7.3611 3.25168 7.52645 3.13307 7.72033 3.04654C7.91422 2.96001 8.11853 2.91675 8.33325 2.91675H11.6666C11.8813 2.91675 12.0856 2.96001 12.2795 3.04654C12.4734 3.13307 12.6387 3.25168 12.7755 3.40237L13.8653 4.58341H16.4101C16.8311 4.58341 17.1874 4.72925 17.4791 5.02092C17.7708 5.31258 17.9166 5.6689 17.9166 6.08987V15.577C17.9166 15.9979 17.7708 16.3542 17.4791 16.6459C17.1874 16.9376 16.8311 17.0834 16.4101 17.0834H12.9166C12.7392 17.0834 12.5907 17.0236 12.471 16.9038C12.3514 16.7842 12.2916 16.6358 12.2916 16.4584C12.2916 16.2811 12.3514 16.1326 12.471 16.013C12.5907 15.8933 12.7392 15.8334 12.9166 15.8334H16.4101C16.4743 15.8334 16.533 15.8067 16.5864 15.7532C16.6398 15.6999 16.6666 15.6411 16.6666 15.577V6.08987C16.6666 6.02571 16.6398 5.96696 16.5864 5.91362C16.533 5.86015 16.4743 5.83342 16.4101 5.83342H13.3076L11.7787 4.16675H8.22117L6.69221 5.83342H3.58971C3.52554 5.83342 3.46679 5.86015 3.41346 5.91362C3.35999 5.96696 3.33325 6.02571 3.33325 6.08987V15.577C3.33325 15.6411 3.35999 15.6999 3.41346 15.7532C3.46679 15.8067 3.52554 15.8334 3.58971 15.8334H7.08325C7.26061 15.8334 7.40915 15.8933 7.52888 16.013C7.64846 16.1326 7.70825 16.2811 7.70825 16.4584C7.70825 16.6358 7.64846 16.7842 7.52888 16.9038C7.40915 17.0236 7.26061 17.0834 7.08325 17.0834H3.58971ZM9.99992 11.1859C10.3728 11.1859 10.6904 11.0548 10.9526 10.7926C11.2148 10.5302 11.346 10.2127 11.346 9.83987V6.50654C11.346 6.13362 11.2148 5.81605 10.9526 5.55383C10.6904 5.29147 10.3728 5.16029 9.99992 5.16029C9.627 5.16029 9.30943 5.29147 9.04721 5.55383C8.78499 5.81605 8.65388 6.13362 8.65388 6.50654V9.83987C8.65388 10.2127 8.78499 10.5302 9.04721 10.7926C9.30943 11.0548 9.627 11.1859 9.99992 11.1859ZM3.58971 15.8334H16.6666H3.33325H3.58971ZM9.99992 13.1732C9.19325 13.1732 8.48943 12.9186 7.88846 12.4095C7.28749 11.9004 6.90853 11.2731 6.75158 10.5274C6.70353 10.3446 6.61881 10.1843 6.49742 10.0465C6.37617 9.90876 6.22422 9.83987 6.04159 9.83987C5.86422 9.83987 5.71784 9.91307 5.60242 10.0595C5.48714 10.2057 5.44499 10.3702 5.47596 10.553C5.62763 11.5487 6.06027 12.3991 6.77388 13.1042C7.48763 13.8094 8.35464 14.2319 9.37492 14.3717V16.4584C9.37492 16.6358 9.43478 16.7842 9.5545 16.9038C9.67409 17.0236 9.82256 17.0834 9.99992 17.0834C10.1773 17.0834 10.3258 17.0236 10.4453 16.9038C10.5651 16.7842 10.6249 16.6358 10.6249 16.4584V14.3717C11.6452 14.2319 12.5122 13.8094 13.226 13.1042C13.9396 12.3991 14.3722 11.5487 14.5239 10.553C14.5548 10.3702 14.5127 10.2057 14.3974 10.0595C14.282 9.91307 14.1356 9.83987 13.9583 9.83987C13.7756 9.83987 13.6237 9.90876 13.5024 10.0465C13.381 10.1843 13.2963 10.3446 13.2483 10.5274C13.0913 11.2731 12.7123 11.9004 12.1114 12.4095C11.5104 12.9186 10.8066 13.1732 9.99992 13.1732Z" fill="#374151"/>
</g>
</svg>
