<svg width="20" height="20" viewBox="0 0 20 20" fill="none" xmlns="http://www.w3.org/2000/svg">
<mask id="mask0_7327_978" style="mask-type:alpha" maskUnits="userSpaceOnUse" x="0" y="0" width="20" height="20">
<rect width="20" height="20" fill="#D9D9D9"/>
</mask>
<g mask="url(#mask0_7327_978)">
<path d="M7.93271 13.0126C6.50966 13.0126 5.30452 12.5191 4.31729 11.532C3.33021 10.5448 2.83667 9.33965 2.83667 7.9166C2.83667 6.49354 3.33021 5.2884 4.31729 4.30118C5.30452 3.3141 6.50966 2.82056 7.93271 2.82056C9.35577 2.82056 10.5609 3.3141 11.5481 4.30118C12.5352 5.2884 13.0288 6.49354 13.0288 7.9166C13.0288 8.51174 12.9289 9.08014 12.7292 9.62181C12.5293 10.1635 12.2627 10.6346 11.9294 11.0351L16.7244 15.8301C16.8398 15.9454 16.8988 16.0904 16.9015 16.2651C16.9041 16.4399 16.8451 16.5876 16.7244 16.7083C16.6037 16.829 16.4573 16.8893 16.2852 16.8893C16.1133 16.8893 15.9669 16.829 15.8463 16.7083L11.0513 11.9133C10.6346 12.2573 10.1554 12.5265 9.61375 12.721C9.07209 12.9154 8.51174 13.0126 7.93271 13.0126ZM7.93271 11.7628C9.00646 11.7628 9.91591 11.3902 10.661 10.6449C11.4063 9.89979 11.779 8.99035 11.779 7.9166C11.779 6.84285 11.4063 5.9334 10.661 5.18826C9.91591 4.44299 9.00646 4.07035 7.93271 4.07035C6.85896 4.07035 5.94952 4.44299 5.20438 5.18826C4.4591 5.9334 4.08646 6.84285 4.08646 7.9166C4.08646 8.99035 4.4591 9.89979 5.20438 10.6449C5.94952 11.3902 6.85896 11.7628 7.93271 11.7628Z" fill="#F9FAFB"/>
</g>
</svg>
