<svg width="14" height="14" viewBox="0 0 14 14" fill="none" xmlns="http://www.w3.org/2000/svg">
<g clip-path="url(#clip0_7157_2338)">
<path d="M10.9931 3.48837C10.9102 3.44563 10.8296 3.39866 10.7515 3.34765C10.5243 3.19762 10.3161 3.0207 10.1313 2.82074C9.66823 2.2911 9.49532 1.75383 9.43204 1.37801H9.43423C9.38132 1.06547 9.40314 0.863647 9.40695 0.863647H7.29877V9.01437C7.2995 9.12347 7.29804 9.23165 7.29441 9.33892L7.29223 9.37874C7.29223 9.38456 7.29168 9.39056 7.29059 9.39674V9.40165C7.26845 9.69402 7.17479 9.97647 7.01785 10.2242C6.86092 10.4718 6.64551 10.6771 6.39059 10.822C6.12489 10.9739 5.82392 11.0533 5.51786 11.0522C4.53604 11.0522 3.73968 10.2515 3.73968 9.26256C3.73968 8.27365 4.53604 7.47237 5.51786 7.47237C5.70386 7.47237 5.88877 7.50183 6.0655 7.55965L6.06823 5.41274C5.53151 5.34356 4.98628 5.38636 4.46693 5.53845C3.94758 5.69054 3.46539 5.94861 3.05077 6.29637C2.68756 6.61207 2.38209 6.98861 2.14804 7.4091C2.05914 7.56238 1.72314 8.17928 1.68277 9.17965C1.65714 9.74692 1.82786 10.336 1.90914 10.5787V10.5842C1.95986 10.7271 2.15841 11.2158 2.48132 11.6276C2.74197 11.958 3.0496 12.2483 3.39441 12.4895V12.484L3.39932 12.4895C4.41932 13.1822 5.55114 13.1369 5.55114 13.1369C5.74695 13.1287 6.40314 13.1369 7.14823 12.784C7.97459 12.3924 8.44477 11.8093 8.44477 11.8093C8.74564 11.461 8.98472 11.0638 9.15168 10.6349C9.34259 10.1331 9.40586 9.53201 9.40586 9.29201V4.9671C9.4315 4.98237 9.77241 5.20765 9.77241 5.20765C9.77241 5.20765 10.2633 5.52238 11.0286 5.72692C11.5773 5.87256 12.3175 5.90365 12.3175 5.90365V3.81074C12.0584 3.8391 11.532 3.75728 10.9926 3.48892" fill="white"/>
</g>
<defs>
<clipPath id="clip0_7157_2338">
<rect width="13.0909" height="13.0909" fill="white" transform="translate(0.45459 0.45459)"/>
</clipPath>
</defs>
</svg>
