<svg width="20" height="20" viewBox="0 0 20 20" fill="none" xmlns="http://www.w3.org/2000/svg">
<mask id="mask0_7327_578" style="mask-type:alpha" maskUnits="userSpaceOnUse" x="0" y="0" width="20" height="20">
<rect width="20" height="20" fill="#D9D9D9"/>
</mask>
<g mask="url(#mask0_7327_578)">
<path d="M9.86372 15.2245V15.9297C9.86372 16.1067 9.80379 16.2552 9.68393 16.3749C9.56407 16.4946 9.41559 16.5545 9.23851 16.5545C9.06129 16.5545 8.91288 16.4946 8.7933 16.3749C8.67358 16.2552 8.61372 16.1067 8.61372 15.9297V11.6828C8.61372 11.5963 8.61934 11.5097 8.63059 11.4232C8.64184 11.3367 8.66136 11.2544 8.68913 11.1763L9.53997 8.76925C9.64038 8.46925 9.82247 8.22543 10.0862 8.03779C10.3498 7.85029 10.6448 7.75654 10.9712 7.75654H15.7435C16.0699 7.75654 16.3649 7.85029 16.6285 8.03779C16.8921 8.22543 17.0741 8.46925 17.1746 8.76925L18.0256 11.1763C18.0534 11.2544 18.0729 11.3367 18.0841 11.4232C18.0954 11.5097 18.101 11.5963 18.101 11.6828V15.9297C18.101 16.1067 18.0411 16.2552 17.9212 16.3749C17.8014 16.4946 17.6528 16.5545 17.4756 16.5545C17.2985 16.5545 17.1501 16.4946 17.0304 16.3749C16.9108 16.2552 16.851 16.1067 16.851 15.9297V15.2245H9.86372ZM9.95997 10.609H16.7548L16.1635 8.92633C16.1474 8.873 16.118 8.83029 16.0754 8.79821C16.0326 8.76612 15.9818 8.75008 15.9231 8.75008H10.7916C10.7329 8.75008 10.6821 8.76612 10.6393 8.79821C10.5967 8.83029 10.5673 8.873 10.5512 8.92633L9.95997 10.609ZM10.8893 13.6699C11.1118 13.6699 11.2984 13.5947 11.4489 13.4442C11.5993 13.2937 11.6746 13.1072 11.6746 12.8847C11.6746 12.6622 11.5993 12.4757 11.4489 12.3253C11.2984 12.1747 11.1118 12.0995 10.8893 12.0995C10.6668 12.0995 10.4804 12.1747 10.33 12.3253C10.1794 12.4757 10.1041 12.6622 10.1041 12.8847C10.1041 13.1072 10.1794 13.2937 10.33 13.4442C10.4804 13.5947 10.6668 13.6699 10.8893 13.6699ZM15.8254 13.6699C16.0477 13.6699 16.2342 13.5947 16.3848 13.4442C16.5353 13.2937 16.6106 13.1072 16.6106 12.8847C16.6106 12.6622 16.5353 12.4757 16.3848 12.3253C16.2342 12.1747 16.0477 12.0995 15.8254 12.0995C15.6029 12.0995 15.4164 12.1747 15.2658 12.3253C15.1152 12.4757 15.04 12.6622 15.04 12.8847C15.04 13.1072 15.1152 13.2937 15.2658 13.4442C15.4164 13.5947 15.6029 13.6699 15.8254 13.6699ZM3.92059 16.4584C3.74962 16.4584 3.63358 16.3817 3.57247 16.2284C3.51136 16.0751 3.54219 15.937 3.66497 15.8142L4.68747 14.7917C3.95025 14.7917 3.30122 14.5847 2.74038 14.1707C2.17941 13.7567 1.89893 13.1998 1.89893 12.5001V5.62508C1.89893 4.88466 2.31136 4.35237 3.13622 4.02821C3.96094 3.7039 5.28462 3.54175 7.10726 3.54175C8.98129 3.54175 10.3178 3.69959 11.1168 4.01529C11.916 4.33098 12.3156 4.86758 12.3156 5.62508V5.97758C12.3156 6.15466 12.2557 6.30314 12.1358 6.423C12.0161 6.54272 11.8676 6.60258 11.6904 6.60258C11.5133 6.60258 11.3649 6.54272 11.2452 6.423C11.1255 6.30314 11.0656 6.15466 11.0656 5.97758V5.62508H3.14893V11.0417H6.70663C6.92011 11.0417 7.099 11.1139 7.2433 11.2582C7.38775 11.4027 7.45997 11.5815 7.45997 11.7949V15.7053C7.45997 15.9186 7.38775 16.0975 7.2433 16.242C7.099 16.3863 6.92011 16.4584 6.70663 16.4584H3.92059ZM4.19059 13.2853C4.41309 13.2853 4.59962 13.2101 4.75018 13.0597C4.90073 12.9091 4.97601 12.7226 4.97601 12.5001C4.97601 12.2776 4.90073 12.0911 4.75018 11.9405C4.59962 11.7901 4.41309 11.7149 4.19059 11.7149C3.96809 11.7149 3.78163 11.7901 3.63122 11.9405C3.48066 12.0911 3.40538 12.2776 3.40538 12.5001C3.40538 12.7226 3.48066 12.9091 3.63122 13.0597C3.78163 13.2101 3.96809 13.2853 4.19059 13.2853ZM9.60726 14.2309H17.1073V11.6026H9.60726V14.2309Z" fill="#374151"/>
</g>
</svg>
