<svg width="14" height="14" viewBox="0 0 14 14" fill="none" xmlns="http://www.w3.org/2000/svg">
<g clip-path="url(#clip0_7157_2350)">
<path fill-rule="evenodd" clip-rule="evenodd" d="M6.99996 2.63647C7.46632 2.63647 7.94468 2.64847 8.40832 2.66811L8.95596 2.69429L9.48014 2.72538L9.97105 2.75866L10.4194 2.79357C10.9061 2.8306 11.364 3.03817 11.7127 3.37971C12.0613 3.72126 12.2782 4.17487 12.3252 4.66066L12.347 4.89247L12.388 5.38884C12.4261 5.9032 12.4545 6.46393 12.4545 7.00011C12.4545 7.53629 12.4261 8.09702 12.388 8.61138L12.347 9.10775L12.3252 9.33957C12.2782 9.82544 12.0612 10.2791 11.7125 10.6207C11.3637 10.9622 10.9056 11.1697 10.4189 11.2067L9.97159 11.241L9.48068 11.2748L8.95596 11.3059L8.40832 11.3321C7.93914 11.3524 7.46958 11.363 6.99996 11.3637C6.53033 11.363 6.06078 11.3524 5.59159 11.3321L5.04396 11.3059L4.51977 11.2748L4.02886 11.241L3.5805 11.2067C3.09385 11.1696 2.63588 10.9621 2.28725 10.6205C1.93862 10.279 1.7217 9.82535 1.67468 9.33957L1.65286 9.10775L1.61196 8.61138C1.57041 8.07527 1.54821 7.53783 1.54541 7.00011C1.54541 6.46393 1.57377 5.9032 1.61196 5.38884L1.65286 4.89247L1.67468 4.66066C1.72168 4.17496 1.93853 3.72141 2.28704 3.37988C2.63556 3.03834 3.09341 2.83072 3.57996 2.79357L4.02777 2.75866L4.51868 2.72538L5.04341 2.69429L5.59105 2.66811C6.06041 2.64778 6.53015 2.63723 6.99996 2.63647ZM5.90905 5.67738V8.32284C5.90905 8.57484 6.18177 8.73193 6.39996 8.60647L8.69087 7.28375C8.74072 7.25505 8.78212 7.21372 8.81091 7.16393C8.83971 7.11413 8.85487 7.05763 8.85487 7.00011C8.85487 6.94259 8.83971 6.88609 8.81091 6.83629C8.78212 6.7865 8.74072 6.74517 8.69087 6.71647L6.39996 5.39429C6.35019 5.36556 6.29373 5.35044 6.23627 5.35045C6.1788 5.35046 6.12235 5.3656 6.07259 5.39435C6.02283 5.42309 5.98152 5.46444 5.95281 5.51422C5.9241 5.564 5.90901 5.62046 5.90905 5.67793V5.67738Z" fill="white"/>
</g>
<defs>
<clipPath id="clip0_7157_2350">
<rect width="13.0909" height="13.0909" fill="white" transform="translate(0.45459 0.45459)"/>
</clipPath>
</defs>
</svg>
